<?xml version="1.0" standalone="no"?>
<!DOCTYPE svg PUBLIC "-//W3C//DTD SVG 1.1//EN" "http://www.w3.org/Graphics/SVG/1.1/DTD/svg11.dtd" >
<svg xmlns="http://www.w3.org/2000/svg" xmlns:xlink="http://www.w3.org/1999/xlink" version="1.1">
<metadata>
Created by FontForge 20170730 at Sat Mar  2 20:33:36 2019
 By Wayne Shih
Copyright (c) 2019, Collectif Design Ltd. (collectif.co.nz), Wayne Shih (wayne@collectif.co.nz), 
with Reserved Font Name 'Aletheia Serif'. 
-- 
'Photo Sans' is a Font Software modified from 'Butler' under the CC BY-SA 4.0 License. 
Butler v1.000 (c) 2015, Fabian De Smet (contact@fabiandesmet.com). 
--
This Font Software is licensed under the Creative Commons Attribution ShareAlike 4.0 International License.
</metadata>
<defs>
<font id="AletheiaSerif-Medium" horiz-adv-x="508" >
  <font-face 
    font-family="Aletheia Serif"
    font-weight="500"
    font-stretch="normal"
    units-per-em="1000"
    panose-1="2 7 8 3 8 7 6 2 3 3"
    ascent="735"
    descent="-265"
    x-height="462"
    cap-height="704"
    bbox="-146 -292 1073 983"
    underline-thickness="50"
    underline-position="-100"
    stemh="18"
    stemv="138"
    unicode-range="U+0020-FB02"
  />
<missing-glyph horiz-adv-x="507" 
d="M281 352l178 -268v538zM79 657l174 -261l173 261h-347zM-1 704h508v-704h-508v704zM224 352l-178 270v-538zM253 310l-174 -262h347z" />
    <glyph glyph-name="f_i" unicode="fi" horiz-adv-x="558" 
d="M520 8v-8h-187v8c38 11 40 42 40 93v272c0 35 -12 74 -50 74h-134v-348c0 -55 10 -83 45 -91v-8h-190v8c38 10 40 40 40 91v348h-64l-2 15h66v17c0 199 86 266 245 266c68 0 123 -33 137 -73c7 -22 10 -51 -2 -71c-17 -30 -56 -39 -86 -21c-29 18 -39 56 -21 85
c9 15 23 25 39 27c22 4 -7 38 -67 38c-34 0 -140 -5 -140 -231v-37h134h156v-361c0 -55 5 -84 41 -93z" />
    <glyph glyph-name="f_l" unicode="fl" horiz-adv-x="542" 
d="M528 15v-15h-186v15c38 11 39 35 39 86v538c0 30 -14 57 -52 67c-43 12 -149 29 -149 -214v-30h107l-3 -15h-104v-348c0 -55 9 -76 45 -84v-15h-191v15c38 10 40 33 40 84v348h-64l-2 15h66v60c0 153 75 223 172 223c39 0 74 -9 106 -29l135 30v-645c0 -55 5 -77 41 -86z
" />
    <glyph glyph-name=".notdef" horiz-adv-x="507" 
d="M281 352l178 -268v538zM79 657l174 -261l173 261h-347zM-1 704h508v-704h-508v704zM224 352l-178 270v-538zM253 310l-174 -262h347z" />
    <glyph glyph-name="space" unicode=" " horiz-adv-x="257" 
 />
    <glyph glyph-name="exclam" unicode="!" horiz-adv-x="318" 
d="M186 206h-57l-27 539h113zM224 59c0 37 -30 67 -67 67s-67 -30 -67 -67c0 -38 30 -68 67 -68s67 30 67 68z" />
    <glyph glyph-name="quotedbl" unicode="&#x22;" horiz-adv-x="519" 
d="M328 378l-31 326h115l-30 -326h-54zM131 378l-30 326h113l-28 -326h-55z" />
    <glyph glyph-name="numbersign" unicode="#" horiz-adv-x="709" 
d="M448 471h-148l-38 -164h148zM662 471h-137l-38 -164h112v-74h-129l-54 -233h-77l54 233h-148l-54 -233h-77l54 233h-124v74h141l38 164h-115v73h131l47 202h77l-46 -202h147l47 202h77l-47 -202h121v-73z" />
    <glyph glyph-name="dollar" unicode="$" horiz-adv-x="568" 
d="M288 6c163 3 155 168 50 243l-50 32v-275zM265 452v246c-107 -1 -167 -136 -28 -227zM397 365c133 -87 172 -197 108 -292c-31 -37 -77 -81 -217 -82v-122h-23v122c-152 7 -219 59 -219 59v192h8c15 -86 66 -215 211 -236v289l-86 56c-119 76 -191 171 -111 285
c0 0 49 76 197 77v122h23v-122c144 -4 220 -48 220 -48v-168h-8c-14 71 -67 191 -212 200v-260z" />
    <glyph glyph-name="percent" unicode="%" horiz-adv-x="992" 
d="M725 40c45 0 60 23 60 161s-17 168 -60 168c-45 0 -61 -30 -61 -168s17 -161 61 -161zM725 384c109 0 136 -91 136 -183s-27 -176 -136 -176c-110 0 -136 84 -136 176s26 183 136 183zM217 497c0 -138 17 -161 61 -161c45 0 60 23 60 161s-17 167 -60 167
c-45 0 -61 -29 -61 -167zM414 497c0 -93 -27 -176 -136 -176c-110 0 -137 83 -137 176c0 91 27 182 137 182c109 0 136 -91 136 -182zM759 704l-456 -704h-59l456 704h59z" />
    <glyph glyph-name="ampersand" unicode="&#x26;" horiz-adv-x="810" 
d="M317 717c-52 -18 -77 -99 -29 -170l72 -106c131 86 108 192 64 247c-29 29 -71 42 -107 29zM207 105c54 -67 181 -72 230 33l-163 235l-50 -32c-56 -40 -95 -139 -17 -236zM743 116h15c0 -81 -60 -119 -115 -125c0 0 -99 -9 -139 50l-56 82c-38 -114 -243 -199 -343 -60
c-100 137 31 247 110 293l50 30l-53 80c-94 130 -31 255 81 274c67 12 114 -6 145 -41c39 -46 83 -164 -69 -272l126 -187c38 84 89 103 115 109c21 5 49 3 67 -12c24 -19 29 -56 6 -81c-20 -24 -57 -28 -82 -7c-12 11 -18 23 -19 39c0 21 -54 5 -79 -60l79 -114
c31 -46 83 -46 83 -46c35 0 70 11 78 48z" />
    <glyph glyph-name="quotesingle" unicode="'" horiz-adv-x="258" 
d="M105 376l-30 328h114l-29 -328h-55z" />
    <glyph glyph-name="parenleft" unicode="(" horiz-adv-x="325" 
d="M313 745l13 -12c-144 -169 -141 -403 -141 -482c0 -80 -2 -317 139 -444l-13 -13c-178 100 -232 308 -232 460c0 151 55 366 234 491z" />
    <glyph glyph-name="parenright" unicode=")" horiz-adv-x="329" 
d="M-2 733l13 12c179 -125 234 -340 234 -491c0 -152 -54 -360 -232 -460l-13 13c141 127 139 364 139 444c0 79 3 313 -141 482z" />
    <glyph glyph-name="asterisk" unicode="*" horiz-adv-x="551" 
d="M483 519l-182 -29l131 -129l-75 -55l-83 165l-84 -165l-74 55l131 129l-183 29l29 87l164 -84l-29 182h92l-29 -182l164 84z" />
    <glyph glyph-name="plus" unicode="+" horiz-adv-x="715" 
d="M657 350v-80h-260v-270h-81v270h-260v80h260v269h81v-269h260z" />
    <glyph glyph-name="comma" unicode="," horiz-adv-x="254" 
d="M89 -129l-9 11c62 46 66 109 50 111c-17 2 -34 7 -48 21c-27 27 -28 71 -1 99c28 28 73 28 100 0c43 -42 16 -122 -14 -168c-13 -21 -33 -50 -78 -74z" />
    <glyph glyph-name="hyphen" unicode="-" horiz-adv-x="444" 
d="M379 215h-315v80h315v-80z" />
    <glyph glyph-name="period" unicode="." horiz-adv-x="252" 
d="M127 -5c-40 0 -72 32 -72 72s32 72 72 72c39 0 72 -32 72 -72s-33 -72 -72 -72z" />
    <glyph glyph-name="slash" unicode="/" horiz-adv-x="420" 
d="M403 725l-308 -746h-81l308 746h81z" />
    <glyph glyph-name="zero" unicode="0" horiz-adv-x="619" 
d="M450 346c0 278 -55 352 -141 352c-90 0 -142 -74 -142 -352c0 -277 54 -340 142 -340c91 0 141 63 141 340zM583 346c0 -185 -54 -355 -274 -355c-221 0 -275 170 -275 355c0 186 54 367 275 367c220 0 274 -181 274 -367z" />
    <glyph glyph-name="one" unicode="1" horiz-adv-x="405" 
d="M344 15v-15h-273v15c41 0 88 4 88 78v454c0 82 -74 32 -92 17l-9 14l174 135h33v-620c0 -77 44 -78 79 -78z" />
    <glyph glyph-name="two" unicode="2" horiz-adv-x="487" 
d="M437 165h14l-45 -165h-367l224 332c172 274 -149 370 -207 189l-15 4c17 190 190 188 190 188c100 0 171 -76 171 -167c0 -66 -42 -126 -121 -228c-49 -64 -148 -210 -148 -210h212c34 0 70 17 92 57z" />
    <glyph glyph-name="three" unicode="3" horiz-adv-x="514" 
d="M56 44c-17 15 -24 43 -17 68c10 35 47 55 82 44c35 -10 55 -47 44 -82c-5 -18 -15 -30 -29 -36c-9 -4 14 -32 94 -32c102 0 136 78 127 176c-4 48 -39 151 -191 167v16c160 39 164 181 93 241c-55 46 -167 27 -194 -58l-15 3c16 162 172 162 181 162
c151 0 259 -185 79 -320c96 -36 150 -105 153 -172c8 -177 -134 -230 -233 -230c-79 0 -135 21 -174 53z" />
    <glyph glyph-name="four" unicode="4" horiz-adv-x="538" 
d="M278 261v297l-169 -250c-33 -46 -10 -47 13 -47h156zM500 200h-100v-67c0 -116 38 -118 80 -118v-15h-282v15c42 0 80 4 80 113v72h-250v15l329 496l43 -7v-443h100v-61z" />
    <glyph glyph-name="five" unicode="5" horiz-adv-x="535" 
d="M483 232c8 -166 -121 -241 -254 -241c-96 0 -142 37 -160 52c-16 16 -25 45 -19 69c10 35 48 56 84 46c35 -10 55 -47 45 -83c-4 -18 -17 -31 -30 -37s6 -32 80 -32c131 0 191 96 163 192c-19 61 -104 168 -340 127l67 379h346l-35 -112h-313l-29 -161
c281 52 389 -83 395 -199z" />
    <glyph glyph-name="six" unicode="6" horiz-adv-x="563" 
d="M401 199c0 141 -48 198 -105 198c-55 0 -122 -34 -122 -99c0 -205 31 -292 113 -292c75 0 114 38 114 193zM524 218c0 -155 -98 -227 -237 -227c-169 0 -245 128 -245 327c0 233 129 395 287 395c91 0 125 -48 135 -65c11 -19 10 -48 -4 -69c-21 -29 -62 -37 -92 -16
c-29 20 -36 62 -15 91c10 14 23 24 39 25c8 1 -6 17 -56 19c-87 2 -161 -83 -162 -360c29 75 101 97 163 97c142 0 187 -111 187 -217z" />
    <glyph glyph-name="seven" unicode="7" horiz-adv-x="553" 
d="M67 704h451l-64 -108c-125 -224 -143 -473 -143 -596h-123c6 176 52 338 251 596h-284c-41 0 -75 -18 -95 -58h-15z" />
    <glyph glyph-name="eight" unicode="8" horiz-adv-x="552" 
d="M394 553c-1 116 -65 145 -123 145c-56 0 -105 -39 -105 -112c0 -75 49 -124 160 -168c38 16 69 64 68 135zM284 -9c-148 0 -248 44 -248 165c0 86 86 162 162 183c-94 58 -132 121 -132 191c0 123 94 183 205 183c120 0 200 -56 200 -151c0 -59 -47 -135 -127 -154
c96 -46 175 -123 175 -212c0 -149 -102 -205 -235 -205zM254 308c-17 9 -21 11 -36 20c-30 -14 -88 -61 -88 -168c0 -98 62 -154 154 -154c60 0 127 36 126 132c-1 79 -73 127 -156 170z" />
    <glyph glyph-name="nine" unicode="9" horiz-adv-x="555" 
d="M160 507c0 -141 48 -199 105 -199c55 0 121 37 121 102c0 199 -30 288 -112 288c-75 0 -114 -41 -114 -191zM37 488c0 152 98 225 237 225c169 0 243 -122 243 -321c0 -250 -92 -401 -282 -401c-105 0 -134 51 -144 68c-11 19 -10 48 4 69c21 30 62 37 92 16
c29 -20 36 -62 15 -91c-10 -14 -24 -24 -40 -25c-7 -1 15 -21 65 -22c127 -3 158 75 159 362c-33 -78 -100 -98 -162 -98c-142 0 -187 112 -187 218z" />
    <glyph glyph-name="colon" unicode=":" horiz-adv-x="252" 
d="M127 304c-41 0 -73 33 -73 73s32 73 73 73c39 0 73 -33 73 -73s-34 -73 -73 -73zM127 16c-41 0 -73 32 -73 72c0 41 32 74 73 74c39 0 73 -33 73 -74c0 -40 -34 -72 -73 -72z" />
    <glyph glyph-name="semicolon" unicode=";" horiz-adv-x="251" 
d="M126 303c-40 0 -72 33 -72 74c0 40 32 73 72 73c41 0 73 -33 73 -73c0 -41 -32 -74 -73 -74zM84 -104c45 24 65 53 78 74c30 46 57 126 14 168c-27 28 -72 28 -100 0c-27 -28 -26 -72 1 -99c14 -14 31 -19 48 -21c16 -2 12 -65 -50 -111z" />
    <glyph glyph-name="less" unicode="&#x3c;" horiz-adv-x="600" 
d="M170 266l383 -201v-81l-507 260v43l507 260v-82z" />
    <glyph glyph-name="equal" unicode="=" horiz-adv-x="613" 
d="M567 344h-511v71h511v-71zM567 119h-511v71h511v-71z" />
    <glyph glyph-name="greater" unicode="&#x3e;" horiz-adv-x="600" 
d="M47 65l383 201l-383 199v82l507 -260v-43l-507 -260v81z" />
    <glyph glyph-name="question" unicode="?" horiz-adv-x="584" 
d="M348 69c0 -41 -33 -74 -75 -74c-41 0 -73 33 -73 74s32 74 73 74c42 0 75 -33 75 -74zM350 345c-52 -17 -80 -63 -75 -123l-23 -4c-6 39 -11 105 52 158c46 39 77 84 68 189c-11 134 -117 164 -201 131c-36 -15 -35 -43 -21 -45c15 -2 27 -10 37 -24
c19 -27 12 -65 -14 -84c-27 -19 -65 -11 -85 17c-13 19 -11 42 -6 61c6 23 31 66 79 87c158 70 331 4 337 -139c7 -145 -91 -205 -148 -224z" />
    <glyph glyph-name="at" unicode="@" horiz-adv-x="880" 
d="M515 81c5 25 27 122 37 172c3 16 17 121 -46 121s-115 -76 -132 -168c-22 -114 26 -157 71 -161c46 -4 70 36 70 36zM525 615c172 -7 326 -136 302 -371c-22 -223 -181 -252 -254 -252c-46 0 -67 30 -62 62c-10 -14 -54 -62 -132 -62c-87 0 -116 96 -107 173
c9 83 67 229 217 228c63 0 83 -39 84 -40c2 12 5 26 5 26l84 -1s-52 -263 -59 -299c-5 -20 -5 -50 28 -50c42 0 141 57 150 219c6 114 -26 293 -246 310c-233 17 -366 -169 -390 -354c0 0 -62 -350 289 -377c116 -9 200 50 206 56l9 -13s-70 -75 -235 -75
c-145 0 -389 74 -376 387c11 278 250 442 487 433z" />
    <glyph glyph-name="A" unicode="A" horiz-adv-x="698" 
d="M172 220h239l-124 312zM683 15v-15h-257v15c66 0 35 82 23 110l-32 80h-248c-14 -40 -67 -196 82 -190v-15h-235v15c32 1 57 0 149 233l171 456h13c184 -441 251 -612 251 -612c33 -80 56 -75 83 -77z" />
    <glyph glyph-name="B" unicode="B" horiz-adv-x="615" 
d="M261 689h-42v-325h50c58 0 129 21 129 171c0 148 -83 154 -137 154zM568 179c0 -174 -137 -179 -310 -179h-221v9c43 0 58 51 58 119v448c0 62 -14 120 -58 120v8h221c139 0 263 -1 263 -171c0 -152 -153 -172 -173 -172c65 0 220 -12 220 -182zM439 184
c0 160 -99 165 -170 165h-50v-334h42c91 0 178 -2 178 169z" />
    <glyph glyph-name="C" unicode="C" horiz-adv-x="681" 
d="M610 209h15l13 -156c-74 -49 -143 -62 -250 -62c-211 0 -347 150 -347 361c0 212 136 361 347 361c103 0 187 -10 250 -61l-13 -156h-15c-42 150 -125 202 -222 202c-108 0 -193 -58 -193 -346c0 -291 88 -346 193 -346c100 0 203 72 222 203z" />
    <glyph glyph-name="D" unicode="D" horiz-adv-x="735" 
d="M541 350c0 317 -156 339 -260 339h-44v-674h44c102 0 260 13 260 335zM689 350c0 -298 -209 -350 -408 -350h-240v15c43 0 71 45 71 113v448c0 62 -27 113 -71 113v15h240c199 0 408 -61 408 -354z" />
    <glyph glyph-name="E" unicode="E" horiz-adv-x="625" 
d="M547 213h15v-213h-533v15c42 0 56 44 56 112v455c0 62 -12 107 -56 107v15h520v-185h-15c-17 169 -239 170 -280 170h-45v-326h50c14 0 143 0 151 102h15v-220h-15c-8 103 -138 103 -151 103h-50v-333h41c44 0 265 -2 297 198z" />
    <glyph glyph-name="F" unicode="F" horiz-adv-x="573" 
d="M27 704h528v-185h-15c-26 177 -250 170 -289 170h-44v-325h49c14 0 145 -3 158 101h15v-220h-15c-13 105 -144 102 -158 102h-49v-218c0 -106 37 -114 81 -114v-15h-261v15c43 0 56 44 56 112v455c0 62 -12 107 -56 107v15z" />
    <glyph glyph-name="G" unicode="G" horiz-adv-x="730" 
d="M446 280h259v-15c-58 0 -68 -14 -68 -232c-62 -24 -150 -42 -257 -42c-216 0 -341 162 -341 361s125 361 341 361c112 0 191 -14 253 -55l-7 -166h-28c-22 161 -100 206 -218 206c-114 0 -185 -71 -185 -346s73 -346 185 -346c117 0 149 21 149 112
c0 143 -21 147 -83 147v15z" />
    <glyph glyph-name="H" unicode="H" horiz-adv-x="634" 
d="M567 563v-427c0 -82 -5 -107 47 -121v-15h-192v15c27 10 26 35 26 121v192h-258v-192c0 -92 -2 -111 26 -121v-15h-193v15c53 14 48 32 48 121v427c0 84 0 117 -48 126v15h193v-15c-28 -9 -26 -39 -26 -126v-216h258v216c0 87 2 117 -26 126v15h192v-15
c-47 -9 -47 -39 -47 -126z" />
    <glyph glyph-name="I" unicode="I" horiz-adv-x="363" 
d="M47 704h279v-15c-43 0 -78 -22 -78 -84v-491c0 -68 36 -99 78 -99v-15h-279v15c43 0 78 31 78 99v491c0 62 -34 84 -78 84v15z" />
    <glyph glyph-name="J" unicode="J" horiz-adv-x="418" 
d="M90 704h287v-15c-45 0 -83 -28 -83 -92v-415c0 -236 -126 -325 -289 -349l-4 15c86 31 167 111 167 328v299c0 188 -1 214 -78 214v15z" />
    <glyph glyph-name="K" unicode="K" horiz-adv-x="770" 
d="M757 15v-15h-132c-106 0 -129 30 -235 181c-57 82 -106 146 -106 146l132 160c29 33 173 199 9 202v15h303v-15c-70 0 -133 -13 -349 -290c176 -235 242 -324 242 -324c47 -62 116 -60 136 -60zM38 704h273v-15c-44 0 -82 -11 -82 -84v-491c0 -68 28 -99 71 -99v-15h-262
v15c42 0 67 31 67 99v491c0 62 -24 84 -67 84v15z" />
    <glyph glyph-name="L" unicode="L" horiz-adv-x="640" 
d="M564 217h14v-217h-533v15c43 0 63 41 63 109v478c0 61 -28 87 -71 87v15h277v-15c-43 0 -83 -17 -83 -89v-585h36c54 0 271 0 297 202z" />
    <glyph glyph-name="M" unicode="M" horiz-adv-x="949" 
d="M845 119c0 -75 41 -104 84 -104v-15h-279v15c42 0 72 29 72 104v542l-253 -670h-15l-280 606v-346c0 -58 8 -236 133 -236v-15h-293v15c136 0 145 179 145 236v370c-37 66 -87 66 -112 68v15h226l250 -537l199 537h200v-15c-43 0 -77 -24 -77 -88v-482z" />
    <glyph glyph-name="N" unicode="N" horiz-adv-x="822" 
d="M508 704h294v-15c-148 1 -145 -190 -145 -236v-453h-43l-431 549v-296c0 -45 -1 -238 134 -238v-15h-296v15c147 0 147 193 147 238v312l-40 51c-64 80 -93 71 -119 73v15h215l418 -527v276c0 46 0 237 -134 236v15z" />
    <glyph glyph-name="O" unicode="O" horiz-adv-x="755" 
d="M566 347c0 274 -72 351 -190 351c-119 0 -192 -77 -192 -351c0 -275 73 -341 192 -341c118 0 190 66 190 341zM711 347c0 -199 -115 -356 -335 -356s-335 157 -335 356c0 198 115 366 335 366s335 -168 335 -366z" />
    <glyph glyph-name="P" unicode="P" horiz-adv-x="619" 
d="M218 316h27c110 0 199 5 199 186c0 184 -91 187 -199 187h-27v-373zM218 301v-164c0 -117 56 -122 109 -122v-15h-297v15c46 0 66 39 66 121v449c0 65 -21 104 -68 104v15h217c199 0 336 -30 336 -202s-137 -201 -336 -201h-27z" />
    <glyph glyph-name="Q" unicode="Q" horiz-adv-x="751" 
d="M566 347c0 274 -72 351 -190 351c-119 0 -192 -77 -192 -351c0 -275 73 -341 192 -341c118 0 190 66 190 341zM711 347c0 -199 -115 -356 -335 -356s-335 157 -335 356c0 198 115 366 335 366s335 -168 335 -366zM426 -66l161 -56c77 -26 121 10 143 26l11 -11l-91 -77
c-77 -63 -160 -40 -322 29l-82 35c-71 30 -119 -6 -141 -22l-12 12c163 137 333 64 333 64z" />
    <glyph glyph-name="R" unicode="R" horiz-adv-x="687" 
d="M431 513c0 178 -86 176 -188 176h-31v-352h31c106 0 188 0 188 176zM680 15v-15h-84c-154 1 -133 1 -197 218c-30 104 -127 104 -140 104h-47v-209c0 -69 28 -98 70 -98v-15h-258v15c43 0 67 28 67 104v487c0 62 -23 83 -67 83v15h219c199 0 325 -24 325 -191
c0 -129 -78 -172 -191 -182c66 2 140 -23 190 -223c20 -76 87 -91 113 -93z" />
    <glyph glyph-name="S" unicode="S" horiz-adv-x="586" 
d="M505 73c0 0 -45 -82 -203 -82c-178 0 -256 59 -256 59v192h15c16 -91 67 -236 241 -236c129 0 156 157 36 243l-159 102c-119 76 -191 171 -111 285c0 0 49 77 198 77c158 0 242 -48 242 -48v-168h-15c-14 76 -64 201 -227 201c-108 0 -169 -136 -29 -227l160 -105
c133 -88 172 -197 108 -293z" />
    <glyph glyph-name="T" unicode="T" horiz-adv-x="676" 
d="M19 704h635v-189h-15c-6 171 -196 174 -203 174h-39v-580c0 -67 37 -94 79 -94v-15h-280v15c42 0 79 27 79 94v580h-39c-15 0 -196 -3 -202 -174h-15v189z" />
    <glyph glyph-name="U" unicode="U" horiz-adv-x="736" 
d="M332 -9c-132 0 -240 89 -240 252v359c0 64 -31 87 -75 87v15h284v-15c-43 0 -87 -13 -87 -88v-366c0 -121 74 -192 176 -192c89 0 172 68 172 195v284c0 48 0 168 -127 167v15h281v-15c-141 1 -139 -119 -139 -167v-284c1 -197 -139 -247 -245 -247z" />
    <glyph glyph-name="V" unicode="V" horiz-adv-x="761" 
d="M475 704h265v-15c-56 0 -91 0 -187 -239l-176 -450h-16c-184 442 -249 612 -249 612c-31 76 -65 77 -95 77v15h294v-15c-83 0 -53 -99 -52 -102l165 -429l115 296c15 46 90 235 -64 235v15z" />
    <glyph glyph-name="W" unicode="W" horiz-adv-x="1087" 
d="M798 704h275v-15c-60 0 -107 -24 -194 -239l-169 -450h-15l-173 439l-156 -439h-15l-244 610c-30 76 -64 79 -94 79v15h294v-15c-88 0 -54 -97 -52 -101l158 -416l101 289l-55 149c-29 76 -64 79 -93 79v15h294v-15c-90 0 -54 -97 -53 -101l153 -420l104 286
c14 48 89 235 -66 235v15z" />
    <glyph glyph-name="X" unicode="X" horiz-adv-x="786" 
d="M647 100c55 -78 87 -84 120 -85v-15h-294v15c68 13 11 99 2 112l-110 166l-55 -78c-31 -58 -134 -200 16 -200v-15h-279v15c38 0 94 -6 250 213l57 80c-113 165 -207 295 -207 295c-59 82 -94 86 -124 86v15h314v-15c-42 0 -66 -37 -13 -115l103 -152l53 75
c27 49 125 192 -28 192v15h303v-15c-44 0 -115 2 -263 -205l-55 -77c73 -103 210 -307 210 -307z" />
    <glyph glyph-name="Y" unicode="Y" horiz-adv-x="732" 
d="M439 704h279v-15c-35 0 -110 0 -221 -220l-71 -148v-204c0 -75 38 -101 80 -101v-16h-279v16c42 0 80 26 80 101v165c-147 260 -192 330 -192 330c-44 76 -77 77 -106 78v14h288v-14c-25 0 -91 2 -23 -113l144 -240l72 148c17 35 89 204 -51 204v15z" />
    <glyph glyph-name="Z" unicode="Z" horiz-adv-x="581" 
d="M191 15h36c181 0 276 118 300 218h17l-25 -233h-495l388 689h-48c-159 0 -265 -65 -297 -187h-19l18 202h489z" />
    <glyph glyph-name="bracketleft" unicode="[" horiz-adv-x="321" 
d="M113 735h193v-15c-54 0 -106 -1 -106 -85v-690c0 -73 54 -76 106 -76v-15h-193v881z" />
    <glyph glyph-name="backslash" unicode="\" horiz-adv-x="423" 
d="M325 -19l-311 753h80l311 -753h-80z" />
    <glyph glyph-name="bracketright" unicode="]" horiz-adv-x="320" 
d="M11 735h193v-881h-193v15c52 0 106 3 106 76v690c0 84 -52 85 -106 85v15z" />
    <glyph glyph-name="asciicircum" unicode="^" horiz-adv-x="569" 
d="M293 704l182 -328h-37l-157 181l-154 -181h-38l181 328h23z" />
    <glyph glyph-name="underscore" unicode="_" horiz-adv-x="560" 
d="M0 -73h560v-53h-560v53z" />
    <glyph glyph-name="grave" unicode="`" horiz-adv-x="337" 
d="M100 720l173 -163h-29l-240 134z" />
    <glyph glyph-name="a" unicode="a" 
d="M298 241c-107 -24 -148 -69 -148 -125c0 -14 9 -72 72 -72c43 0 67 31 76 55v142zM481 66l15 -6c-7 -31 -47 -69 -105 -69c0 0 -83 -1 -92 83c-14 -46 -73 -83 -143 -83c0 0 -115 0 -115 102c0 105 84 121 257 165v60c0 103 -54 158 -129 122c-35 -18 -40 -36 -34 -37
c14 -2 25 -8 34 -20c17 -23 11 -55 -12 -72c-23 -16 -56 -11 -72 12c-12 17 -13 39 -4 55s24 44 78 73c44 23 95 20 95 20c120 0 152 -82 152 -200v-160s0 -66 47 -66c0 0 22 0 28 21z" />
    <glyph glyph-name="b" unicode="b" horiz-adv-x="572" 
d="M409 215c0 158 -44 219 -129 219c-70 0 -110 -55 -110 -129v-139c0 -115 59 -160 121 -160c70 0 118 53 118 209zM533 226c0 -158 -103 -235 -240 -235c-59 0 -110 18 -143 50c-32 -29 -85 -52 -85 -36v630c0 34 -10 49 -51 60v15l156 32v-353c32 57 102 82 152 82
c123 0 211 -97 211 -245z" />
    <glyph glyph-name="c" unicode="c" horiz-adv-x="491" 
d="M444 128l12 -7c-13 -50 -68 -130 -192 -130c-121 0 -219 109 -219 241c0 118 89 239 251 239c85 0 121 -37 134 -52c12 -15 19 -39 10 -58c-11 -28 -44 -44 -73 -33s-42 44 -31 72c5 15 16 26 29 31c9 3 -16 25 -69 25c-38 0 -141 -31 -141 -210c0 -121 66 -172 136 -183
c62 -9 132 29 153 65z" />
    <glyph glyph-name="d" unicode="d" horiz-adv-x="566" 
d="M396 142v158c0 111 -61 156 -120 156c-70 0 -119 -51 -119 -207c0 -160 42 -226 126 -226c67 0 113 49 113 119zM552 27v-15l-128 -20c-28 -4 -28 18 -28 18v58c-32 -55 -102 -77 -150 -77c-124 0 -212 98 -212 246c0 159 104 234 240 234c48 0 90 -13 122 -33v199
c0 35 -10 47 -51 58v15l156 32v-654c0 -49 10 -58 51 -61z" />
    <glyph glyph-name="e" unicode="e" horiz-adv-x="507" 
d="M148 255h214c0 136 -53 201 -104 201c-58 0 -110 -90 -110 -201zM436 127l14 -7c-13 -49 -71 -129 -197 -129c-127 0 -217 112 -217 237c0 144 95 243 226 243s204 -74 204 -231h-318c6 -116 61 -169 133 -180c58 -9 133 19 155 67z" />
    <glyph glyph-name="f" unicode="f" horiz-adv-x="315" 
d="M356 639c-13 -27 -45 -39 -72 -27c-28 13 -39 44 -27 72c7 14 18 23 31 26c12 2 -3 20 -36 20c-43 0 -69 -54 -69 -268h110l-3 -15h-107v-348c0 -54 9 -76 45 -84v-15h-190v15c38 9 39 34 39 84v348h-64l-1 15h65c0 224 56 282 174 282c50 0 88 -29 98 -44
c11 -16 15 -42 7 -61z" />
    <glyph glyph-name="g" unicode="g" horiz-adv-x="557" 
d="M345 309c0 112 -46 136 -89 136c-50 0 -87 -24 -87 -136s43 -137 87 -137c46 0 89 25 89 137zM536 383c-22 -19 -54 -16 -72 5c-9 11 -13 24 -10 37c1 8 -27 3 -44 -20c24 -25 37 -60 37 -96c0 -81 -71 -152 -191 -152c-39 0 -69 5 -94 16c-36 -10 -92 -103 20 -103h130
c69 0 187 -2 169 -143c0 0 -4 -81 -109 -140c-138 -77 -308 -65 -348 14c-36 70 17 147 79 179c-28 13 -48 40 -48 80c0 0 -3 88 92 120c-51 22 -80 76 -80 129c0 81 71 151 189 151c63 0 111 -17 143 -45c27 40 69 54 92 57c18 3 38 -3 51 -17c18 -22 15 -54 -6 -72z
M98 -169c51 -61 175 -86 266 -31c72 44 64 106 64 106s-6 52 -85 52h-138c-11 0 -49 -2 -86 13c-94 -57 -20 -141 -21 -140z" />
    <glyph glyph-name="h" unicode="h" horiz-adv-x="523" 
d="M506 15v-15h-187v15c38 11 40 42 40 93v201c0 65 -30 99 -94 99c-38 0 -74 -33 -93 -70v-230c0 -55 5 -83 41 -92v-16h-187v16c38 11 40 41 40 92v526c0 35 -9 46 -50 57v15l156 36v-382c18 55 97 111 161 111c81 0 132 -38 132 -158v-205c0 -55 6 -84 41 -93z" />
    <glyph glyph-name="i" unicode="i" horiz-adv-x="263" 
d="M121 553c-33 0 -59 26 -59 59s26 60 59 60s61 -27 61 -60s-28 -59 -61 -59zM225 15v-15h-186v15c38 12 40 41 40 92v250c0 34 -10 48 -51 65v15l156 34v-364c0 -55 5 -82 41 -92z" />
    <glyph glyph-name="j" unicode="j" horiz-adv-x="261" 
d="M122 553c-32 0 -59 26 -59 59c0 34 27 60 59 60c33 0 61 -26 61 -60c0 -33 -28 -59 -61 -59zM79 27v326c0 34 -8 52 -50 69v15l155 34v-421c0 -189 -77 -253 -176 -278v15c71 20 71 222 71 240z" />
    <glyph glyph-name="k" unicode="k" horiz-adv-x="536" 
d="M523 15v-15h-115c-69 0 -82 18 -152 118c-23 33 -66 90 -66 90l94 100s146 142 14 139v15h234v-15c-32 -1 -112 -8 -259 -179c111 -156 161 -208 161 -208c31 -41 69 -44 89 -45zM207 15v-15h-187v15c38 11 40 41 40 92v527c0 35 -9 50 -50 61v15l156 32v-635
c0 -55 5 -83 41 -92z" />
    <glyph glyph-name="l" unicode="l" horiz-adv-x="246" 
d="M220 15v-15h-187v15c38 11 40 41 40 92v527c0 35 -9 50 -50 61v15l156 32v-635c0 -55 5 -83 41 -92z" />
    <glyph glyph-name="m" unicode="m" horiz-adv-x="778" 
d="M756 15v-15h-187v15c38 11 40 41 40 92v205c0 64 -28 98 -82 98c-44 0 -87 -48 -87 -86v-13l1 -204c0 -55 5 -83 41 -92v-15h-187v15c38 11 40 41 40 92v205c0 64 -27 98 -81 98c-44 0 -84 -49 -88 -84v-220c0 -55 6 -81 41 -91v-15h-186v15c38 11 39 40 39 91v247
c0 35 -9 52 -50 69v15l156 34v-103c25 58 84 103 147 103c70 0 113 -32 126 -107c20 61 84 107 147 107c80 0 129 -35 129 -156v-208c0 -55 5 -83 41 -92z" />
    <glyph glyph-name="n" unicode="n" horiz-adv-x="519" 
d="M499 15v-15h-187v15c38 11 40 41 40 92v205c0 58 -34 98 -92 98c-45 0 -90 -46 -94 -84v-220c0 -55 6 -81 41 -91v-15h-186v15c38 11 39 40 39 91v252c0 35 -9 47 -50 64v15l156 34v-106c22 60 97 106 160 106c79 0 132 -35 132 -156v-208c0 -55 5 -83 41 -92z" />
    <glyph glyph-name="o" unicode="o" horiz-adv-x="548" 
d="M384 231c0 181 -34 225 -109 225c-74 0 -109 -44 -109 -225s35 -225 109 -225c75 0 109 44 109 225zM510 231c0 -131 -82 -240 -235 -240c-152 0 -234 109 -234 240c0 132 82 240 234 240c153 0 235 -108 235 -240z" />
    <glyph glyph-name="p" unicode="p" horiz-adv-x="579" 
d="M410 215c0 160 -46 222 -130 222c-63 0 -102 -48 -108 -112v-185c7 -96 62 -134 119 -134c70 0 119 53 119 209zM533 227c0 -158 -103 -236 -240 -236c-48 0 -90 13 -121 34v-189c0 -55 5 -77 41 -86v-15h-187v15c38 11 40 35 40 86v531c0 35 -9 44 -50 55v15l156 34v-79
c31 56 101 79 150 79c123 0 211 -96 211 -244z" />
    <glyph glyph-name="q" unicode="q" horiz-adv-x="571" 
d="M395 132v171c-2 110 -54 153 -112 153c-70 0 -118 -50 -118 -206c0 -160 41 -235 125 -235c66 0 103 49 105 117zM542 -250v-15h-186v15c37 11 39 35 39 86v210c-35 -39 -92 -55 -133 -55c-124 0 -212 99 -212 247c0 158 103 233 240 233c51 0 97 -14 129 -39
c31 29 82 44 82 29v-625c0 -55 5 -77 41 -86z" />
    <glyph glyph-name="r" unicode="r" horiz-adv-x="397" 
d="M297 467c20 5 51 1 69 -16c25 -25 25 -66 0 -91s-65 -26 -92 -1c-12 13 -18 29 -17 44c2 14 -52 -3 -86 -66v-229c0 -56 5 -83 41 -93v-15h-188v15c38 12 40 41 40 93v250c0 34 -9 49 -50 64v15l157 34v-108c45 75 94 96 126 104z" />
    <glyph glyph-name="s" unicode="s" horiz-adv-x="435" 
d="M358 43c0 0 -36 -52 -133 -52c-121 0 -178 43 -178 43v131h15c11 -53 39 -159 163 -159c88 0 88 98 12 148l-101 61c-97 62 -121 132 -73 202c0 0 34 54 135 54c115 0 164 -31 164 -31v-117h-15c-10 47 -40 133 -149 133c-80 0 -98 -85 -11 -140l101 -63
c90 -56 119 -140 70 -210z" />
    <glyph glyph-name="t" unicode="t" horiz-adv-x="335" 
d="M311 90l13 -8c-17 -45 -70 -91 -133 -91c-75 0 -121 32 -121 153v303h-50l-3 15h53v138l106 17v-155h119l-4 -15h-115v-300c0 -68 26 -96 75 -96c29 0 52 21 60 39z" />
    <glyph glyph-name="u" unicode="u" horiz-adv-x="543" 
d="M523 29v-14l-131 -23c-26 -4 -26 17 -26 17v86c-21 -55 -95 -104 -160 -104c-75 0 -134 30 -134 152v219c0 63 2 69 -56 75v15l161 19v-325c0 -66 36 -94 94 -94c38 0 76 30 95 71v239c0 61 3 71 -47 75v15l153 19v-383c0 -48 9 -54 51 -59z" />
    <glyph glyph-name="v" unicode="v" horiz-adv-x="518" 
d="M323 462h194v-14c-30 0 -67 -2 -125 -142l-122 -315h-13c-177 384 -188 405 -188 405c-24 51 -51 51 -69 52v14h222v-14c-61 0 -25 -73 -25 -73l112 -241l66 171s57 143 -52 143v14z" />
    <glyph glyph-name="w" unicode="w" horiz-adv-x="786" 
d="M590 462h187v-14c-22 0 -67 -4 -115 -140l-116 -317h-13l-140 313l-113 -313h-14c-170 384 -183 409 -183 409c-22 45 -48 47 -64 48v14h214v-14c-58 0 -26 -63 -26 -63l110 -247l68 186c-31 68 -35 76 -35 76c-22 45 -46 47 -62 48v14h215v-14c-64 0 -29 -64 -29 -64
l109 -246l63 175s50 135 -56 135v14z" />
    <glyph glyph-name="x" unicode="x" horiz-adv-x="529" 
d="M432 61c32 -46 74 -46 90 -46v-15h-223v15c50 0 -1 70 -1 70l-67 101l-38 -55c-22 -33 -75 -116 36 -116v-15h-214v15c22 0 71 -3 167 128l40 56l-139 206c-37 45 -54 41 -74 42v15h221v-15c-25 0 -46 -15 -10 -66l63 -95l34 45c16 26 77 116 -31 116v15h220v-15
c-25 -1 -79 7 -180 -128l-35 -46z" />
    <glyph glyph-name="y" unicode="y" horiz-adv-x="536" 
d="M325 462h195v-14c-28 0 -68 -6 -129 -158l-154 -413c-24 -63 -52 -89 -69 -102c-16 -13 -47 -19 -68 -9c-31 14 -44 50 -31 81c14 31 50 45 81 31c16 -7 26 -21 30 -36c4 -13 27 -3 42 37l42 115c-91 203 -188 409 -188 409c-18 42 -52 44 -67 45v14h221v-14
c-58 0 -28 -67 -28 -67l115 -246l60 158s64 156 -52 155v14z" />
    <glyph glyph-name="z" unicode="z" horiz-adv-x="448" 
d="M409 462l-245 -447c150 0 200 72 214 137h15l-9 -152h-355l259 447c-134 0 -202 -37 -221 -117h-15l5 132h352z" />
    <glyph glyph-name="braceleft" unicode="{" horiz-adv-x="329" 
d="M272 -150v-14c-79 11 -144 52 -144 167v117c0 148 -41 144 -79 153v13c37 11 79 7 79 165v117c0 115 65 156 144 167v-14c-41 -15 -64 -49 -64 -153v-144c0 -110 -62 -144 -122 -144c60 0 122 -24 122 -133v-144c0 -104 23 -139 64 -153z" />
    <glyph glyph-name="bar" unicode="|" horiz-adv-x="214" 
d="M73 -164v899h67v-899h-67z" />
    <glyph glyph-name="braceright" unicode="}" horiz-adv-x="327" 
d="M53 -164v14c41 14 64 49 64 153v144c0 109 62 133 122 133c-60 0 -122 34 -122 144v144c0 104 -23 138 -64 153v14c79 -11 144 -52 144 -167v-117c0 -158 42 -154 79 -165v-13c-38 -9 -79 -5 -79 -153v-117c0 -115 -65 -156 -144 -167z" />
    <glyph glyph-name="asciitilde" unicode="~" horiz-adv-x="589" 
d="M343 204l-117 43c-34 12 -126 10 -152 -46l-13 5c66 163 191 120 191 120l117 -43c34 -13 124 -8 150 47l12 -5c-67 -163 -188 -121 -188 -121z" />
    <glyph glyph-name="uni007F" horiz-adv-x="0" 
 />
    <glyph glyph-name="uni00A0" unicode="&#xa0;" horiz-adv-x="257" 
 />
    <glyph glyph-name="exclamdown" unicode="&#xa1;" horiz-adv-x="302" 
d="M124 356h56l27 -531h-111zM153 569c37 0 66 -30 66 -66c0 -38 -29 -67 -66 -67s-67 29 -67 67c0 36 30 66 67 66z" />
    <glyph glyph-name="cent" unicode="&#xa2;" horiz-adv-x="524" 
d="M185 246c0 -114 58 -166 123 -182v391c-45 -9 -123 -54 -123 -209zM474 128l12 -7c-12 -46 -59 -119 -160 -130v-109h-18v109c-149 1 -233 110 -233 240c0 114 82 231 233 240v122h18v-122c84 0 121 -37 134 -53c12 -14 19 -38 10 -58c-11 -28 -44 -44 -73 -32
c-29 11 -43 44 -31 72c5 15 17 25 29 30c9 3 -16 26 -69 26v-395c61 -5 128 31 148 67z" />
    <glyph glyph-name="sterling" unicode="&#xa3;" horiz-adv-x="659" 
d="M283 84c-36 23 -65 40 -95 52c-95 41 -148 -24 -136 -68c17 -61 75 -62 88 -62c68 0 116 30 143 78zM251 169c0 0 37 -14 44 -19c2 39 -15 78 -46 127c-16 25 -39 59 -55 85h-94v15h87c-137 297 105 410 241 351c61 -26 79 -59 89 -86c7 -20 0 -47 -18 -65
c-25 -24 -65 -24 -91 2c-25 25 -23 66 2 90c13 13 29 16 45 16c16 -1 -7 22 -32 30c-151 44 -259 -62 -100 -338h180v-15h-171l30 -41c42 -68 36 -140 7 -196c17 -12 83 -34 83 -34c68 -23 138 0 146 44l15 -3c1 -109 -95 -137 -105 -138c-57 -7 -119 23 -187 66
c-46 -56 -107 -69 -180 -69c-10 0 -83 4 -105 73c-15 47 24 170 215 105z" />
    <glyph glyph-name="currency" unicode="&#xa4;" horiz-adv-x="588" 
d="M175 460c-31 -30 -48 -71 -48 -115s17 -85 48 -115c30 -30 70 -48 115 -48c44 0 85 18 114 48c30 30 48 71 48 115s-18 85 -47 115c-30 30 -71 48 -115 48c-45 0 -85 -18 -115 -48zM479 205l83 -82l-50 -50l-82 82c-39 -29 -89 -46 -140 -46c-52 0 -101 17 -141 46
l-81 -82l-50 50l82 82c-29 40 -46 88 -46 140s17 101 46 140l-82 82l50 50l81 -82c40 30 89 46 141 46c51 0 101 -16 140 -46l82 82l50 -50l-83 -82c30 -39 46 -88 46 -140s-16 -100 -46 -140z" />
    <glyph glyph-name="yen" unicode="&#xa5;" horiz-adv-x="661" 
d="M406 689v15h279v-15c-35 0 -110 -1 -221 -220l-71 -146h168v-16h-168v-70h168v-16h-168v-105c0 -74 38 -101 80 -101v-15h-280v15c42 0 80 27 80 101v105h-189v16h189v45l-15 25h-174v16h166c-129 226 -169 288 -169 288c-44 77 -76 78 -105 79v14h287v-14
c-24 0 -91 1 -23 -114l144 -238l71 146c17 35 91 205 -49 205z" />
    <glyph glyph-name="brokenbar" unicode="&#xa6;" horiz-adv-x="212" 
d="M141 735v-375h-70v375h70zM141 186v-377h-70v377h70z" />
    <glyph glyph-name="section" unicode="&#xa7;" horiz-adv-x="545" 
d="M189 394c-148 -98 -53 -175 22 -226c43 -28 111 -70 120 -76c15 -9 27 -18 35 -25c144 103 45 179 -30 229c-42 30 -113 73 -121 79c-11 8 -21 15 -26 19zM379 55c45 -41 75 -98 67 -164c-15 -148 -153 -150 -216 -144c-55 5 -96 35 -109 56c-10 16 -13 41 -2 59
c15 28 49 37 78 22c27 -15 37 -50 21 -77c-8 -14 -22 -23 -37 -25c-8 -1 17 -16 48 -20c71 -9 126 25 133 91c7 50 -7 88 -75 135l-126 83c-114 76 -172 214 14 335c-52 47 -75 101 -68 168c16 148 147 150 210 145c55 -5 96 -36 109 -57c10 -16 13 -41 3 -59
c-16 -28 -50 -37 -78 -22c-27 16 -37 50 -22 77c8 14 16 21 29 23c9 2 -6 18 -38 22c-77 7 -134 -25 -141 -91c-6 -50 13 -90 82 -136l125 -82c116 -75 175 -221 -7 -339z" />
    <glyph glyph-name="dieresis" unicode="&#xa8;" horiz-adv-x="263" 
d="M166 645c0 29 24 53 52 53c30 0 54 -24 54 -53s-24 -52 -54 -52c-28 0 -52 23 -52 52zM-8 645c0 29 24 53 53 53s52 -24 52 -53s-23 -52 -52 -52s-53 23 -53 52z" />
    <glyph glyph-name="copyright" unicode="&#xa9;" horiz-adv-x="808" 
d="M522 276h14l5 -86c-42 -28 -78 -35 -138 -35c-120 0 -196 85 -196 204s76 203 196 203c58 0 103 -6 138 -34l-5 -86h-14c-12 94 -76 106 -119 106c-50 0 -109 -27 -109 -189c0 -164 61 -190 109 -190c45 0 107 13 119 107zM775 368c0 -205 -167 -372 -372 -372
c-207 0 -373 167 -373 372c0 206 166 373 373 373c205 0 372 -167 372 -373zM710 368c0 170 -139 310 -307 310c-170 0 -309 -140 -309 -310c0 -169 139 -309 309 -309c168 0 307 140 307 309z" />
    <glyph glyph-name="ordfeminine" unicode="&#xaa;" horiz-adv-x="300" 
d="M155 579c-55 -13 -78 -32 -78 -61c0 -8 5 -36 39 -36c22 0 36 21 39 35v62zM248 493l11 -4c-3 -17 -21 -36 -54 -36c0 0 -45 0 -49 39c-7 -21 -38 -39 -75 -39c0 0 -60 0 -60 53c0 56 43 65 134 88v30c0 54 -30 76 -69 59c-17 -7 -19 -15 -16 -15c8 0 14 -4 18 -10
c8 -12 4 -28 -7 -37c-12 -8 -28 -6 -37 6c-6 8 -6 20 -2 28c4 10 14 26 39 39c24 12 51 10 51 10c63 0 80 -43 80 -104v-84s0 -36 24 -35c0 0 10 0 12 12z" />
    <glyph glyph-name="guillemotleft" unicode="&#xab;" horiz-adv-x="610" 
d="M522 505v-33l-135 -206l135 -201v-32l-231 233zM318 505v-33l-136 -206l136 -201v-32l-231 233z" />
    <glyph glyph-name="logicalnot" unicode="&#xac;" horiz-adv-x="648" 
d="M41 394h560v-314h-72v243h-488v71z" />
    <glyph glyph-name="uni00AD" unicode="&#xad;" horiz-adv-x="444" 
d="M379 215h-315v80h315v-80z" />
    <glyph glyph-name="registered" unicode="&#xae;" horiz-adv-x="811" 
d="M469 460c0 91 -46 89 -101 89h-17v-181h17c57 0 101 0 101 92zM775 369c0 -205 -167 -372 -372 -372c-206 0 -373 167 -373 372c0 206 167 373 373 373c205 0 372 -167 372 -373zM710 369c0 170 -138 309 -307 309c-170 0 -308 -139 -308 -309c0 -169 138 -307 308 -307
c169 0 307 138 307 307zM604 196v-14h-46c-82 1 -72 1 -105 118c-16 56 -76 54 -76 54h-26v-105c0 -38 14 -53 37 -53v-14h-139v14c24 0 37 15 37 57v257c0 35 -13 39 -37 39v14h119c108 0 175 -12 175 -103c0 -70 -42 -93 -103 -99c35 2 76 -14 103 -122
c10 -41 46 -43 61 -43z" />
    <glyph glyph-name="macron" unicode="&#xaf;" horiz-adv-x="360" 
d="M377 591h-393v60h393v-60z" />
    <glyph glyph-name="degree" unicode="&#xb0;" horiz-adv-x="381" 
d="M93 607c0 -52 42 -94 95 -94c51 0 93 42 93 94c0 51 -42 93 -93 93c-53 0 -95 -42 -95 -93zM57 607c0 72 59 130 130 130s130 -58 130 -130c0 -71 -59 -129 -130 -129s-130 58 -130 129z" />
    <glyph glyph-name="plusminus" unicode="&#xb1;" horiz-adv-x="608" 
d="M335 373h225v-71h-225v-162h-71v162h-223v71h223v162h71v-162zM41 0v71h519v-71h-519z" />
    <glyph glyph-name="twosuperior" unicode="&#xb2;" horiz-adv-x="266" 
d="M206 454h13l-20 -75h-168l103 152c79 125 -64 168 -90 85l-14 3c7 87 89 85 89 85c46 0 79 -34 79 -75c0 -30 -16 -57 -51 -104c-23 -30 -66 -96 -66 -96h83c15 0 32 8 42 25z" />
    <glyph glyph-name="threesuperior" unicode="&#xb3;" horiz-adv-x="271" 
d="M231 480c3 -81 -67 -107 -108 -107c-35 0 -61 12 -78 26c-8 7 -11 20 -8 31c4 16 21 25 37 21c16 -5 25 -22 21 -38c-3 -8 -7 -14 -14 -17c-5 -1 6 -9 42 -9c42 0 64 35 58 77c-3 21 -17 63 -86 70v15c73 17 76 79 42 106c-26 21 -69 12 -82 -27l-15 2c7 74 82 74 84 74
c69 0 119 -86 39 -147c45 -13 66 -47 68 -77z" />
    <glyph glyph-name="acute" unicode="&#xb4;" horiz-adv-x="360" 
d="M87 558l173 163l96 -29l-240 -134h-29z" />
    <glyph glyph-name="mu" unicode="&#xb5;" horiz-adv-x="539" 
d="M518 29v-15l-131 -22c-26 -5 -26 17 -26 17v86c-22 -61 -111 -118 -189 -97v-161c0 -49 10 -60 52 -64v-15l-130 -22c-27 -5 -27 17 -27 17v609c0 62 2 69 -56 75v15l161 19v-329c2 -63 36 -90 94 -90c38 0 76 30 95 71v239c0 61 3 71 -47 75v15l153 19v-384
c0 -48 9 -53 51 -58z" />
    <glyph glyph-name="paragraph" unicode="&#xb6;" horiz-adv-x="643" 
d="M482 559v-673c0 -78 27 -136 75 -136v-15h-139v969h146v-15c-50 0 -82 -60 -82 -130zM288 704h64v-969h-189v15c48 0 124 17 124 127v423c-136 0 -250 34 -250 200c0 165 130 203 250 204h1z" />
    <glyph glyph-name="periodcentered" unicode="&#xb7;" horiz-adv-x="260" 
d="M132 246c-30 0 -54 24 -54 53s24 53 54 53c29 0 53 -24 53 -53s-24 -53 -53 -53z" />
    <glyph glyph-name="cedilla" unicode="&#xb8;" horiz-adv-x="272" 
d="M116 -4h15l-21 -60c92 21 132 -33 126 -84c-9 -69 -71 -82 -104 -82c-38 0 -61 15 -68 21s-11 18 -8 28c4 15 20 23 34 19c15 -5 24 -19 20 -34c-2 -7 -5 -10 -9 -12c-2 -2 3 -9 31 -9c33 0 55 22 55 56c0 22 -22 84 -102 69z" />
    <glyph glyph-name="onesuperior" unicode="&#xb9;" horiz-adv-x="221" 
d="M139 433c0 -35 22 -38 38 -38v-15h-132v15c20 0 43 4 43 38v186c0 34 -31 16 -38 10l-11 15l85 61h15v-272z" />
    <glyph glyph-name="ordmasculine" unicode="&#xba;" horiz-adv-x="327" 
d="M162 388c38 0 66 21 66 149c0 129 -30 155 -66 155c-37 0 -67 -26 -67 -155c0 -128 30 -149 67 -149zM162 707c103 0 128 -83 128 -170c0 -86 -25 -164 -128 -164s-129 78 -129 164c0 87 26 170 129 170z" />
    <glyph glyph-name="guillemotright" unicode="&#xbb;" horiz-adv-x="609" 
d="M84 472v33l231 -239l-231 -233v32l135 201zM288 472v33l231 -239l-231 -233v32l136 201z" />
    <glyph glyph-name="onequarter" unicode="&#xbc;" horiz-adv-x="642" 
d="M453 136v144l-80 -119c-16 -25 -5 -25 7 -25h73zM570 708h58l-557 -672h-57zM222 389v-14h-137v14c21 0 44 2 44 40v227c0 36 -32 15 -42 7l-9 13l88 70h17v-317c0 -40 22 -40 39 -40zM569 105h-52v-30c0 -60 19 -61 41 -61v-14h-146v14c21 0 41 2 41 59v32h-130v8
l170 254l24 -3v-228h52v-31z" />
    <glyph glyph-name="onehalf" unicode="&#xbd;" horiz-adv-x="647" 
d="M593 86h14l-24 -86h-191l116 174c90 143 -72 190 -101 96l-14 4c8 100 99 98 99 98c53 0 89 -40 89 -87c0 -34 -19 -65 -60 -118c-25 -34 -75 -110 -75 -110h96c17 0 40 9 51 29zM570 708h58l-557 -672h-57zM222 389v-14h-137v14c21 0 44 2 44 40v227c0 36 -32 15 -42 7
l-9 13l88 70h17v-317c0 -40 22 -40 39 -40z" />
    <glyph glyph-name="threequarters" unicode="&#xbe;" horiz-adv-x="643" 
d="M453 136v144l-80 -119c-16 -25 -5 -25 7 -25h73zM570 708h58l-557 -672h-57zM147 372c-41 0 -70 13 -89 29c-9 8 -13 23 -10 34c5 19 25 30 42 24c19 -5 31 -25 24 -43c-3 -9 -7 -14 -13 -17c-5 -1 5 -13 46 -13c53 0 70 40 64 89c-3 25 -18 76 -97 83v13
c82 20 85 90 48 120c-29 22 -79 11 -93 -33l-15 5c7 83 90 83 92 83c79 0 135 -96 43 -164c51 -13 77 -55 79 -89c3 -95 -75 -121 -121 -121zM569 105h-52v-30c0 -60 19 -61 41 -61v-14h-146v14c21 0 41 2 41 59v32h-130v8l170 254l24 -3v-228h52v-31z" />
    <glyph glyph-name="questiondown" unicode="&#xbf;" horiz-adv-x="596" 
d="M252 399c0 42 33 75 74 75s74 -33 74 -75c0 -41 -33 -73 -74 -73s-74 32 -74 73zM249 124c53 17 81 64 76 124l23 3c6 -39 11 -104 -53 -158c-46 -39 -77 -84 -68 -189c12 -134 121 -161 204 -128c37 15 29 41 19 42c-15 2 -28 11 -37 24c-19 27 -12 66 14 85
s65 10 84 -17c14 -19 12 -42 7 -62c-6 -22 -33 -64 -82 -85c-160 -72 -328 2 -335 137c-7 146 92 205 148 224z" />
    <glyph glyph-name="Agrave" unicode="&#xc0;" horiz-adv-x="698" 
d="M305 898l173 -163h-29l-240 134zM172 220h239l-124 312zM683 15v-15h-257v15c66 0 35 82 23 110l-32 80h-248c-14 -40 -67 -196 82 -190v-15h-235v15c32 1 57 0 149 233l171 456h13c184 -441 251 -612 251 -612c33 -80 56 -75 83 -77z" />
    <glyph glyph-name="Aacute" unicode="&#xc1;" horiz-adv-x="698" 
d="M172 220h239l-124 312zM683 15v-15h-257v15c66 0 35 82 23 110l-32 80h-248c-14 -40 -67 -196 82 -190v-15h-235v15c32 1 57 0 149 233l171 456h13c184 -441 251 -612 251 -612c33 -80 56 -75 83 -77zM219 735l173 163l96 -29l-240 -134h-29z" />
    <glyph glyph-name="Acircumflex" unicode="&#xc2;" horiz-adv-x="698" 
d="M411 220h-239l115 312zM683 15c-27 2 -50 -3 -83 77c0 0 -67 171 -251 612h-13l-171 -456c-92 -233 -117 -232 -149 -233v-15h235v15c-149 -6 -96 150 -82 190h248l32 -80c12 -28 43 -110 -23 -110v-15h257v15zM462 735l-118 89l-119 -89h-30l149 187l149 -187h-31z" />
    <glyph glyph-name="Atilde" unicode="&#xc3;" horiz-adv-x="698" 
d="M389 758l-117 44c-34 11 -123 9 -150 -47l-12 5c66 163 188 121 188 121l117 -43c34 -13 125 -6 150 49l12 -7c-66 -163 -188 -122 -188 -122zM172 220h239l-124 312zM683 15v-15h-257v15c66 0 35 82 23 110l-32 80h-248c-14 -40 -67 -196 82 -190v-15h-235v15
c32 1 57 0 149 233l171 456h13c184 -441 251 -612 251 -612c33 -80 56 -75 83 -77z" />
    <glyph glyph-name="Adieresis" unicode="&#xc4;" horiz-adv-x="698" 
d="M378 830c0 29 23 53 52 53s54 -24 54 -53s-25 -52 -54 -52s-52 23 -52 52zM204 830c0 29 24 53 52 53c30 0 53 -24 53 -53s-23 -52 -53 -52c-28 0 -52 23 -52 52zM172 220h239l-124 312zM683 15v-15h-257v15c66 0 35 82 23 110l-32 80h-248c-14 -40 -67 -196 82 -190v-15
h-235v15c32 1 57 0 149 233l171 456h13c184 -441 251 -612 251 -612c33 -80 56 -75 83 -77z" />
    <glyph glyph-name="Aring" unicode="&#xc5;" horiz-adv-x="698" 
d="M281 880c0 -34 28 -62 62 -62c35 0 63 28 63 62c0 35 -28 63 -63 63c-34 0 -62 -28 -62 -63zM242 880c0 56 45 103 101 103c57 0 103 -47 103 -103s-46 -102 -103 -102c-56 0 -101 46 -101 102zM172 220h239l-124 312zM683 15v-15h-257v15c66 0 35 82 23 110l-32 80h-248
c-14 -40 -67 -196 82 -190v-15h-235v15c32 1 57 0 149 233l171 456h13c184 -441 251 -612 251 -612c33 -80 56 -75 83 -77z" />
    <glyph glyph-name="AE" unicode="&#xc6;" horiz-adv-x="970" 
d="M235 254h214v328c0 15 -1 35 -3 46zM892 212h14v-212h-527v15c43 0 70 17 70 112v112h-220c-116 -214 -36 -224 24 -224v-15h-243v15c32 2 83 23 215 255l214 381c-14 36 -42 38 -72 38v15h526v-185h-15c-17 170 -224 170 -264 170h-41v-327h46c13 0 127 -3 135 102h15
v-219h-15c-8 105 -122 102 -135 102h-46v-332h36c45 0 253 -2 283 197z" />
    <glyph glyph-name="Ccedilla" unicode="&#xc7;" horiz-adv-x="681" 
d="M373 -9c-202 6 -332 155 -332 361c0 212 136 361 347 361c103 0 187 -10 250 -61l-13 -156h-15c-42 150 -125 202 -222 202c-108 0 -193 -58 -193 -346c0 -291 88 -346 193 -346c100 0 203 72 222 203h15l13 -156c-74 -49 -143 -62 -250 -62l-19 -56
c92 21 132 -33 126 -84c-9 -69 -71 -82 -104 -82c-38 0 -61 15 -68 21s-11 18 -8 28c4 15 20 23 34 19c15 -5 23 -19 20 -34c-2 -7 -5 -10 -9 -12c-2 -2 3 -10 31 -9c33 0 56 22 55 56c0 22 -22 84 -102 69z" />
    <glyph glyph-name="Egrave" unicode="&#xc8;" horiz-adv-x="625" 
d="M259.5 898l173 -163h-29l-240 134zM547 213h15v-213h-533v15c42 0 56 44 56 112v455c0 62 -12 107 -56 107v15h520v-185h-15c-17 169 -239 170 -280 170h-45v-326h50c14 0 143 0 151 102h15v-220h-15c-8 103 -138 103 -151 103h-50v-333h41c44 0 265 -2 297 198z" />
    <glyph glyph-name="Eacute" unicode="&#xc9;" horiz-adv-x="625" 
d="M547 213h15v-213h-533v15c42 0 56 44 56 112v455c0 62 -12 107 -56 107v15h520v-185h-15c-17 169 -239 170 -280 170h-45v-326h50c14 0 143 0 151 102h15v-220h-15c-8 103 -138 103 -151 103h-50v-333h41c44 0 265 -2 297 198zM148 735l173 163l96 -29l-240 -134h-29z
" />
    <glyph glyph-name="Ecircumflex" unicode="&#xca;" horiz-adv-x="625" 
d="M562 213h-15c-32 -200 -253 -198 -297 -198h-41v333h50c13 0 143 0 151 -103h15v220h-15c-8 -102 -137 -102 -151 -102h-50v326h45c41 0 263 -1 280 -170h15v185h-520v-15c44 0 56 -45 56 -107v-455c0 -68 -14 -112 -56 -112v-15h533v213zM410 735l-118 89l-119 -89h-30
l149 187l149 -187h-31z" />
    <glyph glyph-name="Edieresis" unicode="&#xcb;" horiz-adv-x="625" 
d="M328 830c0 29 24 53 53 53s53 -24 53 -53s-24 -52 -53 -52s-53 23 -53 52zM154 830c0 29 24 53 53 53s53 -24 53 -53s-24 -52 -53 -52s-53 23 -53 52zM547 213h15v-213h-533v15c42 0 56 44 56 112v455c0 62 -12 107 -56 107v15h520v-185h-15c-17 169 -239 170 -280 170
h-45v-326h50c14 0 143 0 151 102h15v-220h-15c-8 103 -138 103 -151 103h-50v-333h41c44 0 265 -2 297 198z" />
    <glyph glyph-name="Igrave" unicode="&#xcc;" horiz-adv-x="361" 
d="M44 689v15h279v-15c-43 0 -78 -22 -78 -84v-490c0 -69 36 -100 78 -100v-15h-279v15c42 0 78 31 78 100v490c0 62 -34 84 -78 84zM141 898l173 -163h-29l-240 134z" />
    <glyph glyph-name="Iacute" unicode="&#xcd;" horiz-adv-x="361" 
d="M44 689v15h279v-15c-43 0 -78 -22 -78 -84v-490c0 -69 36 -100 78 -100v-15h-279v15c42 0 78 31 78 100v490c0 62 -34 84 -78 84zM46 735l173 163l96 -29l-240 -134h-29z" />
    <glyph glyph-name="Icircumflex" unicode="&#xce;" horiz-adv-x="361" 
d="M44 689v15h279v-15c-43 0 -78 -22 -78 -84v-490c0 -69 36 -100 78 -100v-15h-279v15c42 0 78 31 78 100v490c0 62 -34 84 -78 84zM304 735l-118 89l-119 -89h-30l149 187l149 -187h-31z" />
    <glyph glyph-name="Idieresis" unicode="&#xcf;" horiz-adv-x="361" 
d="M271 778c-29 0 -53 23 -53 52s24 53 53 53s53 -24 53 -53s-24 -52 -53 -52zM150 830c0 -29 -24 -52 -53 -52s-53 23 -53 52s24 53 53 53s53 -24 53 -53zM44 689v15h279v-15c-43 0 -78 -22 -78 -84v-490c0 -69 36 -100 78 -100v-15h-279v15c42 0 78 31 78 100v490
c0 62 -34 84 -78 84z" />
    <glyph glyph-name="Eth" unicode="&#xd0;" horiz-adv-x="732" 
d="M537 350c0 317 -156 339 -260 339h-44v-328h145v-19h-145v-327h44c103 0 260 13 260 335zM685 350c0 -298 -209 -350 -408 -350h-239v15c43 0 71 45 71 113v214h-83v19h83v215c0 62 -27 113 -71 113v15h239c199 0 408 -61 408 -354z" />
    <glyph glyph-name="Ntilde" unicode="&#xd1;" horiz-adv-x="822" 
d="M455 758l-117 44c-33 11 -123 9 -149 -47l-12 5c65 163 187 121 187 121l117 -43c34 -13 125 -6 150 49l12 -7c-66 -163 -188 -122 -188 -122zM508 704h294v-15c-148 1 -144 -190 -144 -237v-452h-44l-430 547v-295c0 -44 -1 -237 133 -237v-15h-296v15
c148 0 146 192 146 237v314l-39 50c-64 80 -93 71 -119 73v15h215l417 -527v275c0 47 2 238 -133 237v15z" />
    <glyph glyph-name="Ograve" unicode="&#xd2;" horiz-adv-x="755" 
d="M566 347c0 -275 -72 -341 -190 -341c-119 0 -192 66 -192 341c0 274 73 351 192 351c118 0 190 -77 190 -351zM711 347c0 198 -115 366 -335 366s-335 -168 -335 -366c0 -199 115 -356 335 -356s335 157 335 356zM318 898l173 -163h-29l-240 134z" />
    <glyph glyph-name="Oacute" unicode="&#xd3;" horiz-adv-x="755" 
d="M566 347c0 274 -72 351 -190 351c-119 0 -192 -77 -192 -351c0 -275 73 -341 192 -341c118 0 190 66 190 341zM711 347c0 -199 -115 -356 -335 -356s-335 157 -335 356c0 198 115 366 335 366s335 -168 335 -366zM235 735l173 163l96 -29l-240 -134h-29z" />
    <glyph glyph-name="Ocircumflex" unicode="&#xd4;" horiz-adv-x="755" 
d="M566 347c0 -275 -72 -341 -190 -341c-119 0 -192 66 -192 341c0 274 73 351 192 351c118 0 190 -77 190 -351zM711 347c0 198 -115 366 -335 366s-335 -168 -335 -366c0 -199 115 -356 335 -356s335 157 335 356zM493 735l-118 89l-119 -89h-30l149 187l149 -187h-31z
" />
    <glyph glyph-name="Otilde" unicode="&#xd5;" horiz-adv-x="755" 
d="M309 802c-34 11 -123 9 -150 -47l-12 4c66 164 188 122 188 122l117 -44c34 -12 124 -5 150 50l12 -7c-67 -163 -188 -122 -188 -122zM566 347c0 -275 -72 -341 -190 -341c-119 0 -192 66 -192 341c0 274 73 351 192 351c118 0 190 -77 190 -351zM711 347
c0 198 -115 366 -335 366s-335 -168 -335 -366c0 -199 115 -356 335 -356s335 157 335 356z" />
    <glyph glyph-name="Odieresis" unicode="&#xd6;" horiz-adv-x="755" 
d="M411 830c0 29 24 53 53 53s53 -24 53 -53s-24 -53 -53 -53s-53 24 -53 53zM238 830c0 29 23 53 52 53s53 -24 53 -53s-24 -53 -53 -53s-52 24 -52 53zM566 347c0 274 -72 351 -190 351c-119 0 -192 -77 -192 -351c0 -275 73 -341 192 -341c118 0 190 66 190 341zM711 347
c0 -199 -115 -356 -335 -356s-335 157 -335 356c0 198 115 366 335 366s335 -168 335 -366z" />
    <glyph glyph-name="multiply" unicode="&#xd7;" horiz-adv-x="600" 
d="M356 254l185 -184l-56 -57l-185 185l-184 -185l-57 57l185 184l-185 185l57 57l184 -185l185 185l56 -57z" />
    <glyph glyph-name="Oslash" unicode="&#xd8;" horiz-adv-x="756" 
d="M377 6c118 0 190 66 190 341c0 109 -12 187 -34 241l-302 -501c32 -62 81 -81 146 -81zM185 347c0 -112 14 -188 37 -240l302 501c-32 67 -82 90 -147 90c-119 0 -192 -77 -192 -351zM573 654c91 -66 139 -180 139 -307c0 -199 -115 -356 -335 -356
c-70 0 -129 16 -178 44l-42 -70h-21l48 79c-94 62 -142 174 -142 303c0 198 115 366 335 366c72 0 132 -18 181 -49l48 81h21z" />
    <glyph glyph-name="Ugrave" unicode="&#xd9;" horiz-adv-x="736" 
d="M320 898l173 -163h-29l-240 134zM332 -9c106 0 246 50 245 247v284c0 48 -2 168 139 167v15h-281v-15c127 1 127 -119 127 -167v-284c0 -127 -83 -195 -172 -195c-102 0 -176 71 -176 192v366c0 75 44 88 87 88v15h-284v-15c44 0 75 -23 75 -87v-359
c0 -163 108 -252 240 -252z" />
    <glyph glyph-name="Uacute" unicode="&#xda;" horiz-adv-x="736" 
d="M332 -9c-132 0 -240 89 -240 252v359c0 64 -31 87 -75 87v15h284v-15c-43 0 -87 -13 -87 -88v-366c0 -121 74 -192 176 -192c89 0 172 68 172 195v284c0 48 0 168 -127 167v15h281v-15c-141 1 -139 -119 -139 -167v-284c1 -197 -139 -247 -245 -247zM235 735l173 163
l96 -29l-240 -134h-29z" />
    <glyph glyph-name="Ucircumflex" unicode="&#xdb;" horiz-adv-x="736" 
d="M496 735l-118 89l-119 -89h-30l149 187l149 -187h-31zM332 -9c106 0 246 50 245 247v284c0 48 -2 168 139 167v15h-281v-15c127 1 127 -119 127 -167v-284c0 -127 -83 -195 -172 -195c-102 0 -176 71 -176 192v366c0 75 44 88 87 88v15h-284v-15c44 0 75 -23 75 -87v-359
c0 -163 108 -252 240 -252z" />
    <glyph glyph-name="Udieresis" unicode="&#xdc;" horiz-adv-x="736" 
d="M401 830c0 29 24 53 53 53s53 -24 53 -53s-24 -53 -53 -53s-53 24 -53 53zM228 830c0 29 23 53 52 53s53 -24 53 -53s-24 -53 -53 -53s-52 24 -52 53zM332 -9c-132 0 -240 89 -240 252v359c0 64 -31 87 -75 87v15h284v-15c-43 0 -87 -13 -87 -88v-366
c0 -121 74 -192 176 -192c89 0 172 68 172 195v284c0 48 0 168 -127 167v15h281v-15c-141 1 -139 -119 -139 -167v-284c1 -197 -139 -247 -245 -247z" />
    <glyph glyph-name="Yacute" unicode="&#xdd;" horiz-adv-x="732" 
d="M439 704h279v-15c-35 0 -109 -2 -221 -221l-71 -148v-203c0 -75 38 -102 80 -102v-15h-279v15c42 0 80 27 80 102v165c-147 260 -192 329 -192 329c-44 76 -77 78 -106 79v14h288v-14c-25 0 -91 1 -23 -114l143 -238l71 147c17 35 91 204 -49 204v15zM257 735l173 163
l96 -29l-240 -134h-29z" />
    <glyph glyph-name="Thorn" unicode="&#xde;" horiz-adv-x="628" 
d="M234 562v-371h27c110 0 199 3 199 184c0 184 -92 187 -199 187h-27zM261 176h-27v-57c0 -68 33 -104 75 -104v-15h-273v15c42 0 76 36 76 104v481c0 62 -32 89 -76 89v15h273v-15c-43 0 -75 -27 -75 -89v-23h27c199 0 335 -30 335 -202s-136 -199 -335 -199z" />
    <glyph glyph-name="germandbls" unicode="&#xdf;" horiz-adv-x="605" 
d="M581 202c0 -115 -61 -211 -232 -211c-58 0 -89 24 -100 41c-11 16 -16 39 -9 57c10 27 41 40 67 29c26 -10 39 -41 29 -67c-6 -13 -17 -23 -28 -28c-9 -3 2 -17 41 -17c91 0 108 102 107 206c-1 141 -114 197 -183 197v15c53 0 112 21 112 156c0 159 -100 152 -115 152
c-98 0 -95 -203 -95 -203v-529h-147v15c38 12 40 54 40 105v375c0 153 64 252 202 252c103 0 215 -25 215 -172c0 -126 -115 -156 -135 -156c68 0 231 -50 231 -217z" />
    <glyph glyph-name="agrave" unicode="&#xe0;" 
d="M298 241v-142c-9 -24 -33 -55 -76 -55c-63 0 -72 58 -72 72c0 56 41 101 148 125zM481 66c-6 -21 -28 -21 -28 -21c-47 0 -47 66 -47 66v160c0 118 -32 200 -152 200c0 0 -51 3 -95 -20c-54 -29 -69 -57 -78 -73s-8 -38 4 -55c16 -23 49 -28 72 -12c23 17 29 49 12 72
c-9 12 -20 18 -34 20c-6 1 -1 19 34 37c75 36 129 -19 129 -122v-60c-173 -44 -257 -60 -257 -165c0 -102 115 -102 115 -102c70 0 129 37 143 83c9 -84 92 -83 92 -83c58 0 98 38 105 69zM218 704l173 -163h-29l-240 134z" />
    <glyph glyph-name="aacute" unicode="&#xe1;" 
d="M298 241c-107 -24 -148 -69 -148 -125c0 -14 9 -72 72 -72c43 0 67 31 76 55v142zM481 66l15 -6c-7 -31 -47 -69 -105 -69c0 0 -83 -1 -92 83c-14 -46 -73 -83 -143 -83c0 0 -115 0 -115 102c0 105 84 121 257 165v60c0 103 -54 158 -129 122c-35 -18 -40 -36 -34 -37
c14 -2 25 -8 34 -20c17 -23 11 -55 -12 -72c-23 -16 -56 -11 -72 12c-12 17 -13 39 -4 55s24 44 78 73c44 23 95 20 95 20c120 0 152 -82 152 -200v-160s0 -66 47 -66c0 0 22 0 28 21zM127 541l173 163l96 -29l-240 -134h-29z" />
    <glyph glyph-name="acircumflex" unicode="&#xe2;" 
d="M298 241v-142c-9 -24 -33 -55 -76 -55c-63 0 -72 58 -72 72c0 56 41 101 148 125zM481 66c-6 -21 -28 -21 -28 -21c-47 0 -47 66 -47 66v160c0 118 -32 200 -152 200c0 0 -51 3 -95 -20c-54 -29 -69 -57 -78 -73s-8 -38 4 -55c16 -23 49 -28 72 -12c23 17 29 49 12 72
c-9 12 -20 18 -34 20c-6 1 -1 19 34 37c75 36 129 -19 129 -122v-60c-173 -44 -257 -60 -257 -165c0 -102 115 -102 115 -102c70 0 129 37 143 83c9 -84 92 -83 92 -83c58 0 98 38 105 69zM381 517l-118 89l-119 -89h-30l149 187l149 -187h-31z" />
    <glyph glyph-name="atilde" unicode="&#xe3;" 
d="M307 554l-117 43c-34 12 -123 10 -150 -46l-12 4c66 163 188 122 188 122l117 -44c34 -12 124 -5 150 49l12 -6c-67 -163 -188 -122 -188 -122zM298 241c-107 -24 -148 -69 -148 -125c0 -14 9 -72 72 -72c43 0 67 31 76 55v142zM481 66l15 -6c-7 -31 -47 -69 -105 -69
c0 0 -83 -1 -92 83c-14 -46 -73 -83 -143 -83c0 0 -115 0 -115 102c0 105 84 121 257 165v60c0 103 -54 158 -129 122c-35 -18 -40 -36 -34 -37c14 -2 25 -8 34 -20c17 -23 11 -55 -12 -72c-23 -16 -56 -11 -72 12c-12 17 -13 39 -4 55s24 44 78 73c44 23 95 20 95 20
c120 0 152 -82 152 -200v-160s0 -66 47 -66c0 0 22 0 28 21z" />
    <glyph glyph-name="adieresis" unicode="&#xe4;" 
d="M344 563c-29 0 -52 24 -52 53s23 53 52 53s53 -24 53 -53s-24 -53 -53 -53zM118 616c0 29 23 53 52 53c30 0 53 -24 53 -53s-23 -53 -53 -53c-29 0 -52 24 -52 53zM298 241v-142c-9 -24 -33 -55 -76 -55c-63 0 -72 58 -72 72c0 56 41 101 148 125zM481 66
c-6 -21 -28 -21 -28 -21c-47 0 -47 66 -47 66v160c0 118 -32 200 -152 200c0 0 -51 3 -95 -20c-54 -29 -69 -57 -78 -73s-8 -38 4 -55c16 -23 49 -28 72 -12c23 17 29 49 12 72c-9 12 -20 18 -34 20c-6 1 -1 19 34 37c75 36 129 -19 129 -122v-60
c-173 -44 -257 -60 -257 -165c0 -102 115 -102 115 -102c70 0 129 37 143 83c9 -84 92 -83 92 -83c58 0 98 38 105 69z" />
    <glyph glyph-name="aring" unicode="&#xe5;" 
d="M254 700c-35 0 -63 -28 -63 -62s28 -62 63 -62c34 0 62 28 62 62s-28 62 -62 62zM254 536c-57 0 -102 46 -102 102s45 102 102 102c56 0 101 -46 101 -102s-45 -102 -101 -102zM298 241v-142c-9 -24 -33 -55 -76 -55c-63 0 -72 58 -72 72c0 56 41 101 148 125zM481 66
c-6 -21 -28 -21 -28 -21c-47 0 -47 66 -47 66v160c0 118 -32 200 -152 200c0 0 -51 3 -95 -20c-54 -29 -69 -57 -78 -73s-8 -38 4 -55c16 -23 49 -28 72 -12c23 17 29 49 12 72c-9 12 -20 18 -34 20c-6 1 -1 19 34 37c75 36 129 -19 129 -122v-60
c-173 -44 -257 -60 -257 -165c0 -102 115 -102 115 -102c70 0 129 37 143 83c9 -84 92 -83 92 -83c58 0 98 38 105 69z" />
    <glyph glyph-name="ae" unicode="&#xe6;" horiz-adv-x="722" 
d="M395 254h189c0 139 -35 202 -89 202c-61 0 -100 -88 -100 -202zM649 128l15 -8c-13 -48 -50 -129 -176 -129c-81 0 -145 48 -171 103c-13 -57 -76 -103 -161 -103c0 0 -115 0 -115 102c0 99 78 120 247 165v60c0 103 -50 158 -125 121c-35 -17 -36 -33 -30 -34
c14 -2 24 -10 33 -22c16 -23 11 -55 -13 -72c-23 -16 -55 -11 -71 12c-12 17 -13 39 -4 55c8 16 22 43 76 72c44 23 87 21 87 21c56 0 93 -28 114 -70c40 43 81 70 140 70c131 0 186 -72 186 -232h-287c5 -112 43 -167 120 -179c58 -9 114 29 135 68zM307 111
c-11 27 -17 66 -19 92c-1 19 0 39 0 39c-28 -8 -138 -40 -138 -126c0 -15 6 -72 69 -72c50 0 79 42 88 67z" />
    <glyph glyph-name="ccedilla" unicode="&#xe7;" horiz-adv-x="491" 
d="M296 456c-38 0 -141 -30 -141 -209c0 -121 66 -173 136 -183c62 -9 132 28 153 65l12 -7c-13 -51 -68 -131 -192 -131h-13l-19 -54c92 21 133 -33 126 -84c-8 -69 -70 -82 -103 -82c-39 0 -62 15 -69 21c-6 6 -10 18 -8 28c5 15 20 23 35 19c15 -5 22 -19 19 -34
c-1 -6 -5 -10 -9 -12c-2 -2 3 -10 32 -9c33 0 55 22 54 56c0 22 -21 84 -101 69l29 83c-108 14 -192 117 -192 240c0 119 89 239 251 239c85 0 121 -36 134 -52c12 -14 19 -38 10 -58c-11 -28 -44 -44 -73 -33c-29 12 -43 44 -31 73c5 15 17 25 29 30c9 2 -16 25 -69 25z
" />
    <glyph glyph-name="egrave" unicode="&#xe8;" horiz-adv-x="507" 
d="M362 255h-214c0 111 52 201 110 201c51 0 104 -65 104 -201zM436 127c-22 -48 -97 -76 -155 -67c-72 11 -127 64 -133 180h318c0 157 -73 231 -204 231s-226 -99 -226 -243c0 -125 90 -237 217 -237c126 0 184 80 197 129zM219 704l173 -163h-29l-240 134z" />
    <glyph glyph-name="eacute" unicode="&#xe9;" horiz-adv-x="507" 
d="M148 255h214c0 136 -53 201 -104 201c-58 0 -110 -90 -110 -201zM436 127l14 -7c-13 -49 -71 -129 -197 -129c-127 0 -217 112 -217 237c0 144 95 243 226 243s204 -74 204 -231h-318c6 -116 61 -169 133 -180c58 -9 133 19 155 67zM120 541l173 163l96 -29l-240 -134
h-29z" />
    <glyph glyph-name="ecircumflex" unicode="&#xea;" horiz-adv-x="507" 
d="M362 255h-214c0 111 52 201 110 201c51 0 104 -65 104 -201zM436 127c-22 -48 -97 -76 -155 -67c-72 11 -127 64 -133 180h318c0 157 -73 231 -204 231s-226 -99 -226 -243c0 -125 90 -237 217 -237c126 0 184 80 197 129zM369 517l-118 89l-119 -89h-30l149 187
l149 -187h-31z" />
    <glyph glyph-name="edieresis" unicode="&#xeb;" horiz-adv-x="507" 
d="M344 563c-30 0 -53 24 -53 53s23 53 53 53c29 0 53 -24 53 -53s-24 -53 -53 -53zM258 456c-58 0 -110 -90 -110 -201h214c0 136 -53 201 -104 201zM281 60c58 -9 133 19 155 67l14 -7c-13 -49 -71 -129 -197 -129c-127 0 -217 112 -217 237c0 144 95 243 226 243
s204 -74 204 -231h-318c6 -116 61 -169 133 -180zM170 563c-29 0 -52 24 -52 53s23 53 52 53s53 -24 53 -53s-24 -53 -53 -53z" />
    <glyph glyph-name="igrave" unicode="&#xec;" horiz-adv-x="264" 
d="M226 15c-36 10 -41 37 -41 92v364l-156 -34v-15c41 -17 50 -31 50 -65v-250c0 -51 -2 -80 -40 -92v-15h187v15zM86 704l173 -163h-29l-240 134z" />
    <glyph glyph-name="iacute" unicode="&#xed;" horiz-adv-x="264" 
d="M226 15v-15h-187v15c38 12 40 41 40 92v250c0 34 -9 48 -50 65v15l156 34v-364c0 -55 5 -82 41 -92zM-1 541l173 163l96 -29l-240 -134h-29z" />
    <glyph glyph-name="icircumflex" unicode="&#xee;" horiz-adv-x="264" 
d="M226 15c-36 10 -41 37 -41 92v364l-156 -34v-15c41 -17 50 -31 50 -65v-250c0 -51 -2 -80 -40 -92v-15h187v15zM245 517l-118 89l-119 -89h-30l149 187l149 -187h-31z" />
    <glyph glyph-name="idieresis" unicode="&#xef;" horiz-adv-x="264" 
d="M214 563c-29 0 -52 24 -52 53s23 53 52 53c30 0 53 -24 53 -53s-23 -53 -53 -53zM41 563c-30 0 -53 24 -53 53s23 53 53 53c29 0 52 -24 52 -53s-23 -53 -52 -53zM226 15v-15h-187v15c38 12 40 41 40 92v250c0 34 -9 48 -50 65v15l156 34v-364c0 -55 5 -82 41 -92z" />
    <glyph glyph-name="eth" unicode="&#xf0;" horiz-adv-x="559" 
d="M387 333c-32 57 -79 76 -112 76c-67 0 -109 -79 -110 -209c-3 -155 38 -194 104 -194c88 0 118 92 118 325v2zM519 323c0 -199 -81 -332 -250 -332c-122 0 -234 70 -231 225c2 112 58 221 197 221c48 0 117 -13 152 -75c-1 100 -21 189 -52 245l-164 -84l-13 13l169 87
c-37 53 -93 75 -151 75v15c80 0 151 -23 206 -62l102 54l15 -13l-101 -53c68 -63 121 -173 121 -316z" />
    <glyph glyph-name="ntilde" unicode="&#xf1;" horiz-adv-x="519" 
d="M307 554l-117 43c-34 12 -123 10 -150 -46l-12 4c66 163 188 122 188 122l117 -44c34 -12 124 -5 150 49l12 -6c-67 -163 -188 -122 -188 -122zM499 15v-15h-187v15c38 11 40 41 40 92v205c0 58 -34 98 -92 98c-45 0 -90 -46 -94 -84v-220c0 -55 6 -81 41 -91v-15h-186
v15c38 11 39 40 39 91v252c0 35 -9 47 -50 64v15l156 34v-106c22 60 97 106 160 106c79 0 132 -35 132 -156v-208c0 -55 5 -83 41 -92z" />
    <glyph glyph-name="ograve" unicode="&#xf2;" horiz-adv-x="548" 
d="M384 231c0 -181 -34 -225 -109 -225c-74 0 -109 44 -109 225s35 225 109 225c75 0 109 -44 109 -225zM510 231c0 132 -82 240 -235 240c-152 0 -234 -108 -234 -240c0 -131 82 -240 234 -240c153 0 235 109 235 240zM238 704l173 -163h-29l-240 134z" />
    <glyph glyph-name="oacute" unicode="&#xf3;" horiz-adv-x="548" 
d="M384 231c0 181 -34 225 -109 225c-74 0 -109 -44 -109 -225s35 -225 109 -225c75 0 109 44 109 225zM510 231c0 -131 -82 -240 -235 -240c-152 0 -234 109 -234 240c0 132 82 240 234 240c153 0 235 -108 235 -240zM136 541l173 163l96 -29l-240 -134h-29z" />
    <glyph glyph-name="ocircumflex" unicode="&#xf4;" horiz-adv-x="548" 
d="M384 231c0 -181 -34 -225 -109 -225c-74 0 -109 44 -109 225s35 225 109 225c75 0 109 -44 109 -225zM510 231c0 132 -82 240 -235 240c-152 0 -234 -108 -234 -240c0 -131 82 -240 234 -240c153 0 235 109 235 240zM396 517l-118 89l-119 -89h-30l149 187l149 -187h-31z
" />
    <glyph glyph-name="otilde" unicode="&#xf5;" horiz-adv-x="548" 
d="M204 597c-33 12 -123 10 -149 -46l-12 4c65 163 187 122 187 122l117 -44c34 -12 125 -5 150 49l12 -6c-66 -163 -188 -122 -188 -122zM384 231c0 -181 -34 -225 -109 -225c-74 0 -109 44 -109 225s35 225 109 225c75 0 109 -44 109 -225zM510 231
c0 132 -82 240 -235 240c-152 0 -234 -108 -234 -240c0 -131 82 -240 234 -240c153 0 235 109 235 240z" />
    <glyph glyph-name="odieresis" unicode="&#xf6;" horiz-adv-x="548" 
d="M363 563c-30 0 -53 24 -53 53s23 53 53 53c29 0 53 -24 53 -53s-24 -53 -53 -53zM189 563c-29 0 -52 24 -52 53s23 53 52 53s53 -24 53 -53s-24 -53 -53 -53zM384 231c0 -181 -34 -225 -109 -225c-74 0 -109 44 -109 225s35 225 109 225c75 0 109 -44 109 -225zM510 231
c0 132 -82 240 -235 240c-152 0 -234 -108 -234 -240c0 -131 82 -240 234 -240c153 0 235 109 235 240z" />
    <glyph glyph-name="divide" unicode="&#xf7;" horiz-adv-x="625" 
d="M312 432c-33 0 -61 28 -61 61c0 34 28 62 61 62c35 0 62 -28 62 -62c0 -33 -27 -61 -62 -61zM581 237h-536v79h536v-79zM312 -1c-33 0 -61 27 -61 61s28 61 61 61c35 0 62 -27 62 -61s-27 -61 -62 -61z" />
    <glyph glyph-name="oslash" unicode="&#xf8;" horiz-adv-x="548" 
d="M384 230c0 62 -7 108 -18 140l-177 -298c16 -51 43 -66 86 -66c75 0 109 43 109 224zM88 -67l56 93c-68 42 -103 118 -103 204c0 132 82 241 234 241c46 0 87 -11 120 -28l49 82h16l-53 -89c68 -42 103 -119 103 -206c0 -131 -82 -239 -235 -239c-46 0 -86 10 -119 27
l-51 -85h-17zM183 90l178 299c-16 51 -42 67 -86 67c-74 0 -109 -45 -109 -226c0 -63 6 -108 17 -140z" />
    <glyph glyph-name="ugrave" unicode="&#xf9;" horiz-adv-x="543" 
d="M523 29c-42 5 -51 11 -51 59v383l-153 -19v-15c50 -4 47 -14 47 -75v-239c-19 -41 -57 -71 -95 -71c-58 0 -94 28 -94 94v325l-161 -19v-15c58 -6 56 -12 56 -75v-219c0 -122 59 -152 134 -152c65 0 139 49 160 104v-86s0 -21 26 -17l131 23v14zM238 704l173 -163h-29
l-240 134z" />
    <glyph glyph-name="uacute" unicode="&#xfa;" horiz-adv-x="543" 
d="M523 29v-14l-131 -23c-26 -4 -26 17 -26 17v86c-21 -55 -95 -104 -160 -104c-75 0 -134 30 -134 152v219c0 63 2 69 -56 75v15l161 19v-325c0 -66 36 -94 94 -94c38 0 76 30 95 71v239c0 61 3 71 -47 75v15l153 19v-383c0 -48 9 -54 51 -59zM149 541l173 163l96 -29
l-240 -134h-29z" />
    <glyph glyph-name="ucircumflex" unicode="&#xfb;" horiz-adv-x="543" 
d="M523 29c-42 5 -51 11 -51 59v383l-153 -19v-15c50 -4 47 -14 47 -75v-239c-19 -41 -57 -71 -95 -71c-58 0 -94 28 -94 94v325l-161 -19v-15c58 -6 56 -12 56 -75v-219c0 -122 59 -152 134 -152c65 0 139 49 160 104v-86s0 -21 26 -17l131 23v14zM389 517l-118 89
l-119 -89h-30l149 187l149 -187h-31z" />
    <glyph glyph-name="udieresis" unicode="&#xfc;" horiz-adv-x="543" 
d="M353 563c-30 0 -53 24 -53 53s23 53 53 53c29 0 52 -24 52 -53s-23 -53 -52 -53zM179 563c-30 0 -53 24 -53 53s23 53 53 53c29 0 53 -24 53 -53s-24 -53 -53 -53zM523 29v-14l-131 -23c-26 -4 -26 17 -26 17v86c-21 -55 -95 -104 -160 -104c-75 0 -134 30 -134 152v219
c0 63 2 69 -56 75v15l161 19v-325c0 -66 36 -94 94 -94c38 0 76 30 95 71v239c0 61 3 71 -47 75v15l153 19v-383c0 -48 9 -54 51 -59z" />
    <glyph glyph-name="yacute" unicode="&#xfd;" horiz-adv-x="536" 
d="M326 462h194v-15c-28 0 -68 -5 -129 -158l-154 -413c-23 -62 -52 -88 -68 -101c-17 -13 -47 -19 -69 -9c-31 14 -44 50 -31 81c14 31 50 45 81 31c16 -7 26 -22 31 -36c3 -13 25 -3 40 37l42 114c-91 204 -187 410 -187 410c-18 42 -52 44 -67 44v15h222v-15
c-59 0 -28 -66 -28 -66l114 -246l60 158s65 156 -51 154v15zM133 541l173 163l96 -29l-240 -134h-29z" />
    <glyph glyph-name="thorn" unicode="&#xfe;" horiz-adv-x="579" 
d="M410 215c0 160 -46 222 -130 222c-63 0 -102 -48 -108 -112v-185c7 -96 62 -134 119 -134c70 0 119 53 119 209zM533 227c0 -158 -103 -236 -240 -236c-48 0 -90 13 -121 34v-189c0 -55 5 -77 41 -86v-15h-187v15c38 11 40 35 40 86v791c0 35 -9 44 -50 55v15l156 34
v-339c31 56 101 79 150 79c123 0 211 -96 211 -244z" />
    <glyph glyph-name="ydieresis" unicode="&#xff;" horiz-adv-x="536" 
d="M354 563c-29 0 -52 24 -52 53s23 53 52 53s53 -24 53 -53s-24 -53 -53 -53zM326 462h194v-15c-28 0 -68 -5 -129 -158l-154 -413c-23 -62 -52 -88 -68 -101c-17 -13 -47 -19 -69 -9c-31 14 -44 50 -31 81c14 31 50 45 81 31c16 -7 26 -22 31 -36c3 -13 25 -3 40 37
l42 114c-91 204 -187 410 -187 410c-18 42 -52 44 -67 44v15h222v-15c-59 0 -28 -66 -28 -66l114 -246l60 158s65 156 -51 154v15zM180 563c-29 0 -52 24 -52 53s23 53 52 53c30 0 53 -24 53 -53s-23 -53 -53 -53z" />
    <glyph glyph-name="Abreve" unicode="&#x102;" horiz-adv-x="698" 
d="M172 220h239l-124 312zM683 15v-15h-257v15c66 0 35 82 23 110l-32 80h-248c-14 -40 -67 -196 82 -190v-15h-235v15c32 1 57 0 149 233l171 456h13c184 -441 251 -612 251 -612c33 -80 56 -75 83 -77zM462 910h13c0 -76 -35 -144 -130 -144c-97 0 -134 68 -134 144h14
c0 -37 22 -78 120 -78c94 0 117 41 117 78z" />
    <glyph glyph-name="abreve" unicode="&#x103;" 
d="M298 241c-107 -24 -148 -69 -148 -125c0 -14 9 -72 72 -72c43 0 67 31 76 55v142zM481 66l15 -6c-7 -31 -47 -69 -105 -69c0 0 -83 -1 -92 83c-14 -46 -73 -83 -143 -83c0 0 -115 0 -115 102c0 105 84 121 257 165v60c0 103 -54 158 -129 122c-35 -18 -40 -36 -34 -37
c14 -2 25 -8 34 -20c17 -23 11 -55 -12 -72c-23 -16 -56 -11 -72 12c-12 17 -13 39 -4 55s24 44 78 73c44 23 95 20 95 20c120 0 152 -82 152 -200v-160s0 -66 47 -66c0 0 22 0 28 21zM380 704h13c0 -76 -35 -144 -130 -144c-97 0 -134 68 -134 144h14c0 -37 22 -78 120 -78
c94 0 117 41 117 78z" />
    <glyph glyph-name="Aogonek" unicode="&#x104;" horiz-adv-x="698" 
d="M683 15v-15h-69c-52 -30 -80 -75 -70 -110c11 -46 62 -38 62 -38c22 2 36 22 36 42h14c0 -36 -8 -72 -63 -79c-86 -12 -103 45 -103 45c-20 66 20 109 85 140h-149v15c66 0 35 82 23 110l-32 80h-248c-14 -40 -67 -196 82 -190v-15h-235v15c32 1 57 0 149 233l171 456h13
c184 -441 251 -612 251 -612c33 -80 56 -75 83 -77zM172 220h239l-124 312z" />
    <glyph glyph-name="aogonek" unicode="&#x105;" 
d="M481 66l15 -6c-6 -27 -38 -60 -85 -67c-43 -30 -65 -70 -56 -102c11 -46 62 -38 62 -38c22 2 36 22 36 42h14c0 -36 -8 -72 -63 -79c-86 -12 -103 45 -103 45c-18 60 14 102 69 133c-25 5 -65 23 -71 80c-14 -46 -73 -83 -143 -83c0 0 -115 0 -115 102
c0 105 84 121 257 165v60c0 103 -54 158 -129 122c-35 -18 -40 -36 -34 -37c14 -2 25 -8 34 -20c17 -23 11 -55 -12 -72c-23 -16 -56 -11 -72 12c-12 17 -13 39 -4 55s24 44 78 73c44 23 95 20 95 20c120 0 152 -82 152 -200v-160s0 -66 47 -66c0 0 22 0 28 21zM298 99v142
c-107 -24 -148 -69 -148 -125c0 -14 9 -72 72 -72c43 0 67 31 76 55z" />
    <glyph glyph-name="Cacute" unicode="&#x106;" horiz-adv-x="681" 
d="M610 209h15l13 -156c-74 -49 -143 -62 -250 -62c-211 0 -347 150 -347 361c0 212 136 361 347 361c103 0 187 -10 250 -61l-13 -156h-15c-42 150 -125 202 -222 202c-108 0 -193 -58 -193 -346c0 -291 88 -346 193 -346c100 0 203 72 222 203zM224 735l173 163l96 -29
l-240 -134h-29z" />
    <glyph glyph-name="cacute" unicode="&#x107;" horiz-adv-x="491" 
d="M444 128l12 -7c-13 -50 -68 -130 -192 -130c-121 0 -219 109 -219 241c0 118 89 239 251 239c85 0 121 -37 134 -52c12 -15 19 -39 10 -58c-11 -28 -44 -44 -73 -33s-42 44 -31 72c5 15 16 26 29 31c9 3 -16 25 -69 25c-38 0 -141 -31 -141 -210c0 -121 66 -172 136 -183
c62 -9 132 29 153 65zM130 541l173 163l96 -29l-240 -134h-29z" />
    <glyph glyph-name="Ccaron" unicode="&#x10c;" horiz-adv-x="681" 
d="M610 209h15l13 -156c-74 -49 -143 -62 -250 -62c-211 0 -347 150 -347 361c0 212 136 361 347 361c103 0 187 -10 250 -61l-13 -156h-15c-42 150 -125 202 -222 202c-108 0 -193 -58 -193 -346c0 -291 88 -346 193 -346c100 0 203 72 222 203zM365 833l118 89h31
l-149 -187l-149 187h30z" />
    <glyph glyph-name="ccaron" unicode="&#x10d;" horiz-adv-x="491" 
d="M444 128l12 -7c-13 -50 -68 -130 -192 -130c-121 0 -219 109 -219 241c0 118 89 239 251 239c85 0 121 -37 134 -52c12 -15 19 -39 10 -58c-11 -28 -44 -44 -73 -33s-42 44 -31 72c5 15 16 26 29 31c9 3 -16 25 -69 25c-38 0 -141 -31 -141 -210c0 -121 66 -172 136 -183
c62 -9 132 29 153 65zM265 615l118 89h31l-149 -187l-149 187h30z" />
    <glyph glyph-name="Dcaron" unicode="&#x10e;" horiz-adv-x="768" 
d="M541 350c0 317 -156 339 -260 339h-44v-674h44c102 0 260 13 260 335zM689 350c0 -298 -209 -350 -408 -350h-240v15c43 0 71 45 71 113v448c0 62 -27 113 -71 113v15h240c199 0 408 -61 408 -354zM299 833l118 89h31l-149 -187l-149 187h30z" />
    <glyph glyph-name="dcaron" unicode="&#x10f;" horiz-adv-x="695" 
d="M572 704h84c0 -131 -120 -200 -120 -200l-10 13s46 38 46 187zM552 27v-15l-128 -20c-28 -4 -28 18 -28 18v58c-32 -55 -102 -77 -150 -77c-124 0 -212 98 -212 246c0 159 104 234 240 234c48 0 90 -13 122 -33v199c0 35 -10 47 -51 58v15l156 32v-654
c0 -49 10 -58 51 -61zM396 142v158c0 111 -61 156 -120 156c-70 0 -119 -51 -119 -207c0 -160 42 -226 126 -226c67 0 113 49 113 119z" />
    <glyph glyph-name="Dcroat" unicode="&#x110;" horiz-adv-x="739" 
d="M537 350c0 317 -156 339 -260 339h-44v-328h145v-19h-145v-327h44c103 0 260 13 260 335zM685 350c0 -298 -209 -350 -408 -350h-239v15c43 0 71 45 71 113v214h-83v19h83v215c0 62 -27 113 -71 113v15h239c199 0 408 -61 408 -354z" />
    <glyph glyph-name="dcroat" unicode="&#x111;" horiz-adv-x="600" 
d="M396 142v158c0 111 -61 156 -120 156c-70 0 -119 -51 -119 -207c0 -160 42 -226 126 -226c67 0 113 49 113 119zM286 564v18h110v55c0 35 -10 47 -51 58v15l156 32v-160h100v-18h-100v-476c0 -49 10 -58 51 -61v-15l-128 -20c-28 -4 -28 18 -28 18v58
c-32 -55 -102 -77 -150 -77c-124 0 -212 98 -212 246c0 159 104 234 240 234c48 0 90 -13 122 -33v126h-110z" />
    <glyph glyph-name="Eogonek" unicode="&#x118;" horiz-adv-x="653" 
d="M547 213h15v-213h-31c-54 -30 -83 -76 -73 -112c11 -46 62 -38 62 -38c22 2 36 22 36 42h14c0 -36 -8 -72 -63 -79c-86 -12 -103 45 -103 45c-20 67 22 111 89 142h-464v15c42 0 56 44 56 112v455c0 62 -12 107 -56 107v15h520v-185h-15c-17 169 -239 170 -280 170h-45
v-326h50c14 0 143 0 151 102h15v-220h-15c-8 103 -138 103 -151 103h-50v-333h41c44 0 265 -2 297 198z" />
    <glyph glyph-name="eogonek" unicode="&#x119;" horiz-adv-x="507" 
d="M258 456c-58 0 -110 -90 -110 -201h214c0 136 -53 201 -104 201zM281 60c58 -9 133 19 155 67l14 -7c-12 -44 -59 -114 -161 -127c-50 -30 -76 -73 -68 -108c13 -45 63 -37 63 -37c22 2 35 22 35 42h15c0 -36 -9 -71 -64 -80c-86 -10 -102 46 -102 46
c-19 61 17 105 76 135h-5c-120 8 -203 117 -203 237c0 144 95 243 226 243s204 -74 204 -231h-318c6 -116 61 -169 133 -180z" />
    <glyph glyph-name="Ecaron" unicode="&#x11a;" horiz-adv-x="653" 
d="M547 213h15v-213h-533v15c42 0 56 44 56 112v455c0 62 -12 107 -56 107v15h520v-185h-15c-17 169 -239 170 -280 170h-45v-326h50c14 0 143 0 151 102h15v-220h-15c-8 103 -138 103 -151 103h-50v-333h41c44 0 265 -2 297 198zM311 833l118 89h31l-149 -187l-149 187h30z
" />
    <glyph glyph-name="ecaron" unicode="&#x11b;" horiz-adv-x="507" 
d="M148 255h214c0 136 -53 201 -104 201c-58 0 -110 -90 -110 -201zM436 127l14 -7c-13 -49 -71 -129 -197 -129c-127 0 -217 112 -217 237c0 144 95 243 226 243s204 -74 204 -231h-318c6 -116 61 -169 133 -180c58 -9 133 19 155 67zM257 615l118 89h31l-149 -187
l-149 187h30z" />
    <glyph glyph-name="dotlessi" unicode="&#x131;" horiz-adv-x="263" 
d="M225 15v-15h-186v15c38 12 40 41 40 92v250c0 34 -10 48 -51 65v15l156 34v-364c0 -55 5 -82 41 -92z" />
    <glyph glyph-name="Lacute" unicode="&#x139;" horiz-adv-x="640" 
d="M564 217h14v-217h-533v15c43 0 63 41 63 109v478c0 61 -28 87 -71 87v15h277v-15c-43 0 -83 -17 -83 -89v-585h36c54 0 271 0 297 202zM152 735l173 163l96 -29l-240 -134h-29z" />
    <glyph glyph-name="lacute" unicode="&#x13a;" horiz-adv-x="265" 
d="M220 15v-15h-187v15c38 11 40 41 40 92v527c0 35 -9 50 -50 61v15l156 32v-635c0 -55 5 -83 41 -92zM-16 764l173 163l96 -29l-240 -134h-29z" />
    <glyph glyph-name="Lcaron" unicode="&#x13d;" horiz-adv-x="637" 
d="M349 704h84c0 -131 -119 -200 -119 -200l-11 13s46 38 46 187zM564 217h14v-217h-533v15c43 0 63 41 63 109v478c0 61 -28 87 -71 87v15h277v-15c-43 0 -83 -17 -83 -89v-585h36c54 0 271 0 297 202z" />
    <glyph glyph-name="lcaron" unicode="&#x13e;" horiz-adv-x="392" 
d="M252 704h84c0 -131 -119 -200 -119 -200l-11 13s46 38 46 187zM220 15v-15h-187v15c38 11 40 41 40 92v527c0 35 -9 50 -50 61v15l156 32v-635c0 -55 5 -83 41 -92z" />
    <glyph glyph-name="Lslash" unicode="&#x141;" horiz-adv-x="646" 
d="M588 218h15v-218h-534v15c42 0 63 48 63 116v153l-122 -68v19l122 68v299c0 62 -28 87 -71 87v15h278v-15c-44 0 -84 -16 -84 -89v-227l199 112v-19l-199 -112v-339h36c259 0 297 151 297 203z" />
    <glyph glyph-name="lslash" unicode="&#x142;" horiz-adv-x="312" 
d="M12 266v19l90 56v295c0 35 -10 49 -50 61v14l156 35v-337l87 55v-19l-87 -55v-283c0 -55 5 -83 40 -92v-15h-186v15c38 11 40 41 40 92v215z" />
    <glyph glyph-name="Nacute" unicode="&#x143;" horiz-adv-x="840" 
d="M508 704h294v-15c-148 1 -145 -190 -145 -236v-453h-43l-431 549v-296c0 -45 -1 -238 134 -238v-15h-296v15c147 0 147 193 147 238v312l-40 51c-64 80 -93 71 -119 73v15h215l418 -527v276c0 46 0 237 -134 236v15zM273 735l173 163l96 -29l-240 -134h-29z" />
    <glyph glyph-name="nacute" unicode="&#x144;" horiz-adv-x="519" 
d="M499 15v-15h-187v15c38 11 40 41 40 92v205c0 58 -34 98 -92 98c-45 0 -90 -46 -94 -84v-220c0 -55 6 -81 41 -91v-15h-186v15c38 11 39 40 39 91v252c0 35 -9 47 -50 64v15l156 34v-106c22 60 97 106 160 106c79 0 132 -35 132 -156v-208c0 -55 5 -83 41 -92zM144 541
l173 163l96 -29l-240 -134h-29z" />
    <glyph glyph-name="Ncaron" unicode="&#x147;" horiz-adv-x="840" 
d="M508 704h294v-15c-148 1 -145 -190 -145 -236v-453h-43l-431 549v-296c0 -45 -1 -238 134 -238v-15h-296v15c147 0 147 193 147 238v312l-40 51c-64 80 -93 71 -119 73v15h215l418 -527v276c0 46 0 237 -134 236v15zM404 833l118 89h31l-149 -187l-149 187h30z" />
    <glyph glyph-name="ncaron" unicode="&#x148;" horiz-adv-x="519" 
d="M499 15v-15h-187v15c38 11 40 41 40 92v205c0 58 -34 98 -92 98c-45 0 -90 -46 -94 -84v-220c0 -55 6 -81 41 -91v-15h-186v15c38 11 39 40 39 91v252c0 35 -9 47 -50 64v15l156 34v-106c22 60 97 106 160 106c79 0 132 -35 132 -156v-208c0 -55 5 -83 41 -92zM262 615
l118 89h31l-149 -187l-149 187h30z" />
    <glyph glyph-name="Ohungarumlaut" unicode="&#x150;" horiz-adv-x="775" 
d="M566 347c0 274 -72 351 -190 351c-119 0 -192 -77 -192 -351c0 -275 73 -341 192 -341c118 0 190 66 190 341zM711 347c0 -199 -115 -356 -335 -356s-335 157 -335 356c0 198 115 366 335 366s335 -168 335 -366zM380 735l170 164l99 -30l-240 -134h-29zM205 735l170 164
l99 -30l-240 -134h-29z" />
    <glyph glyph-name="ohungarumlaut" unicode="&#x151;" horiz-adv-x="548" 
d="M384 231c0 181 -34 225 -109 225c-74 0 -109 -44 -109 -225s35 -225 109 -225c75 0 109 44 109 225zM510 231c0 -131 -82 -240 -235 -240c-152 0 -234 109 -234 240c0 132 82 240 234 240c153 0 235 -108 235 -240zM275 541l170 164l99 -30l-240 -134h-29zM100 541
l170 164l99 -30l-240 -134h-29z" />
    <glyph glyph-name="OE" unicode="&#x152;" horiz-adv-x="966" 
d="M461 118v464c0 110 -54 116 -104 116c-119 0 -172 -77 -172 -351c0 -275 53 -341 172 -341c49 0 104 6 104 112zM887 213h15v-213h-473c-26 -5 -42 -9 -72 -9c-220 0 -315 157 -315 356c0 198 95 366 315 366c29 0 44 -3 69 -9h463v-185h-15c-27 174 -209 170 -249 170
h-40v-326h40c14 0 113 -3 120 102h15v-220h-15c-7 106 -107 103 -120 103h-40v-333h36c44 0 237 -4 266 198z" />
    <glyph glyph-name="oe" unicode="&#x153;" horiz-adv-x="784" 
d="M462 251h184c0 139 -39 205 -89 205c-61 0 -95 -91 -95 -205zM713 128l16 -8c-14 -48 -49 -129 -170 -129c-64 0 -110 30 -149 75c-37 -47 -80 -75 -156 -75c-152 0 -214 107 -214 238c0 132 62 242 214 242c75 0 125 -33 158 -80c40 49 87 80 145 80
c125 0 186 -75 186 -235h-281c3 -113 41 -164 115 -176c58 -9 116 31 136 68zM254 456c-68 0 -89 -46 -89 -227s20 -223 89 -223c68 0 89 42 89 223s-23 227 -89 227z" />
    <glyph glyph-name="Racute" unicode="&#x154;" horiz-adv-x="687" 
d="M431 513c0 178 -86 176 -188 176h-31v-352h31c106 0 188 0 188 176zM680 15v-15h-84c-154 1 -133 1 -197 218c-30 104 -127 104 -140 104h-47v-209c0 -69 28 -98 70 -98v-15h-258v15c43 0 67 28 67 104v487c0 62 -23 83 -67 83v15h219c199 0 325 -24 325 -191
c0 -129 -78 -172 -191 -182c66 2 140 -23 190 -223c20 -76 87 -91 113 -93zM171 735l173 163l96 -29l-240 -134h-29z" />
    <glyph glyph-name="racute" unicode="&#x155;" horiz-adv-x="425" 
d="M297 467c20 5 51 1 69 -16c25 -25 25 -66 0 -91s-65 -26 -92 -1c-12 13 -18 29 -17 44c2 14 -52 -3 -86 -66v-229c0 -56 5 -83 41 -93v-15h-188v15c38 12 40 41 40 93v250c0 34 -9 49 -50 64v15l157 34v-108c45 75 94 96 126 104zM72 541l173 163l96 -29l-240 -134h-29z
" />
    <glyph glyph-name="Rcaron" unicode="&#x158;" horiz-adv-x="687" 
d="M431 513c0 178 -86 176 -188 176h-31v-352h31c106 0 188 0 188 176zM680 15v-15h-84c-154 1 -133 1 -197 218c-30 104 -127 104 -140 104h-47v-209c0 -69 28 -98 70 -98v-15h-258v15c43 0 67 28 67 104v487c0 62 -23 83 -67 83v15h219c199 0 325 -24 325 -191
c0 -129 -78 -172 -191 -182c66 2 140 -23 190 -223c20 -76 87 -91 113 -93zM282 833l118 89h31l-149 -187l-149 187h30z" />
    <glyph glyph-name="rcaron" unicode="&#x159;" horiz-adv-x="397" 
d="M297 467c20 5 51 1 69 -16c25 -25 25 -66 0 -91s-65 -26 -92 -1c-12 13 -18 29 -17 44c2 14 -52 -3 -86 -66v-229c0 -56 5 -83 41 -93v-15h-188v15c38 12 40 41 40 93v250c0 34 -9 49 -50 64v15l157 34v-108c45 75 94 96 126 104zM183 616l118 89h31l-149 -187l-149 187
h30z" />
    <glyph glyph-name="Sacute" unicode="&#x15a;" horiz-adv-x="586" 
d="M505 73c0 0 -45 -82 -203 -82c-178 0 -256 59 -256 59v192h15c16 -91 67 -236 241 -236c129 0 156 157 36 243l-159 102c-119 76 -191 171 -111 285c0 0 49 77 198 77c158 0 242 -48 242 -48v-168h-15c-14 76 -64 201 -227 201c-108 0 -169 -136 -29 -227l160 -105
c133 -88 172 -197 108 -293zM142 735l173 163l96 -29l-240 -134h-29z" />
    <glyph glyph-name="sacute" unicode="&#x15b;" horiz-adv-x="435" 
d="M358 43c0 0 -36 -52 -133 -52c-121 0 -178 43 -178 43v131h15c11 -53 39 -159 163 -159c88 0 88 98 12 148l-101 61c-97 62 -121 132 -73 202c0 0 34 54 135 54c115 0 164 -31 164 -31v-117h-15c-10 47 -40 133 -149 133c-80 0 -98 -85 -11 -140l101 -63
c90 -56 119 -140 70 -210zM99 541l173 163l96 -29l-240 -134h-29z" />
    <glyph glyph-name="Scedilla" unicode="&#x15e;" horiz-adv-x="586" 
d="M505 73c0 0 -45 -82 -203 -82h-10l-19 -55c92 21 132 -33 126 -84c-9 -69 -71 -82 -104 -82c-38 0 -61 15 -68 21s-11 18 -8 28c4 15 20 23 34 19c15 -5 24 -19 20 -34c-2 -7 -5 -10 -9 -12c-2 -2 3 -9 31 -9c33 0 55 22 55 56c0 22 -22 84 -102 69l29 84
c-160 5 -231 58 -231 58v192h15c16 -91 67 -236 241 -236c129 0 156 157 36 243l-159 102c-119 76 -191 171 -111 285c0 0 49 77 198 77c158 0 242 -48 242 -48v-168h-15c-14 76 -64 201 -227 201c-108 0 -169 -136 -29 -227l160 -105c133 -88 172 -197 108 -293z" />
    <glyph glyph-name="scedilla" unicode="&#x15f;" horiz-adv-x="435" 
d="M358 43c0 0 -36 -52 -133 -52h-15l-19 -55c92 21 132 -33 126 -84c-9 -69 -71 -82 -104 -82c-38 0 -61 15 -68 21s-11 18 -8 28c4 15 20 23 34 19c15 -5 24 -19 20 -34c-2 -7 -5 -10 -9 -12c-2 -2 3 -9 31 -9c33 0 55 22 55 56c0 22 -22 84 -102 69l29 84
c-100 6 -148 42 -148 42v131h15c11 -53 39 -159 163 -159c88 0 88 98 12 148l-101 61c-97 62 -121 132 -73 202c0 0 34 54 135 54c115 0 164 -31 164 -31v-117h-15c-10 47 -40 133 -149 133c-80 0 -98 -85 -11 -140l101 -63c90 -56 119 -140 70 -210z" />
    <glyph glyph-name="Scaron" unicode="&#x160;" horiz-adv-x="586" 
d="M505 73c0 0 -45 -82 -203 -82c-178 0 -256 59 -256 59v192h15c16 -91 67 -236 241 -236c129 0 156 157 36 243l-159 102c-119 76 -191 171 -111 285c0 0 49 77 198 77c158 0 242 -48 242 -48v-168h-15c-14 76 -64 201 -227 201c-108 0 -169 -136 -29 -227l160 -105
c133 -88 172 -197 108 -293zM278 833l118 89h31l-149 -187l-149 187h30z" />
    <glyph glyph-name="scaron" unicode="&#x161;" horiz-adv-x="435" 
d="M205 593l118 89h31l-149 -187l-149 187h30zM358 43c0 0 -36 -52 -133 -52c-121 0 -178 43 -178 43v131h15c11 -53 39 -159 163 -159c88 0 88 98 12 148l-101 61c-97 62 -121 132 -73 202c0 0 34 54 135 54c115 0 164 -31 164 -31v-117h-15c-10 47 -40 133 -149 133
c-80 0 -98 -85 -11 -140l101 -63c90 -56 119 -140 70 -210z" />
    <glyph glyph-name="uni0162" unicode="&#x162;" horiz-adv-x="676" 
d="M19 704h635v-189h-15c-6 171 -196 174 -203 174h-39v-580c0 -67 37 -94 79 -94v-15h-127l-20 -59c92 21 132 -33 126 -84c-9 -69 -71 -82 -104 -82c-38 0 -61 15 -68 21s-11 18 -8 28c4 15 20 23 34 19c15 -5 24 -19 20 -34c-2 -7 -5 -10 -9 -12c-2 -2 3 -9 31 -9
c33 0 55 22 55 56c0 22 -22 84 -102 69l30 87h-138v15c42 0 79 27 79 94v580h-39c-15 0 -196 -3 -202 -174h-15v189z" />
    <glyph glyph-name="uni0163" unicode="&#x163;" horiz-adv-x="336" 
d="M192 -9c-9 0 -18 0 -26 2l-22 -57c94 21 134 -33 128 -84c-9 -68 -71 -76 -104 -77c-43 0 -61 11 -68 17s-11 18 -8 28c4 15 20 23 34 18c15 -4 25 -19 20 -33c-3 -9 -8 -14 -14 -16c-4 -2 6 -10 36 -11c37 0 55 28 55 62c0 22 -20 84 -100 69l30 86
c-52 11 -83 51 -83 149v297h-50l-2 21h52v138l107 17v-155h118l-3 -21h-115v-294c0 -68 27 -95 81 -95c29 0 54 18 65 35l6 -3c-17 -46 -78 -93 -137 -93z" />
    <glyph glyph-name="Tcaron" unicode="&#x164;" horiz-adv-x="676" 
d="M19 704h635v-189h-15c-6 171 -196 174 -203 174h-39v-580c0 -67 37 -94 79 -94v-15h-280v15c42 0 79 27 79 94v580h-39c-15 0 -196 -3 -202 -174h-15v189zM338 833l118 89h31l-149 -187l-149 187h30z" />
    <glyph glyph-name="tcaron" unicode="&#x165;" horiz-adv-x="357" 
d="M248 704h84c0 -131 -120 -200 -120 -200l-11 13s47 38 47 187zM311 90l13 -8c-17 -45 -70 -91 -133 -91c-75 0 -121 32 -121 153v303h-50l-3 15h53v138l106 17v-155h119l-4 -15h-115v-300c0 -68 26 -96 75 -96c29 0 52 21 60 39z" />
    <glyph glyph-name="Uring" unicode="&#x16e;" horiz-adv-x="752" 
d="M332 -9c-132 0 -240 89 -240 252v359c0 64 -31 87 -75 87v15h284v-15c-43 0 -87 -13 -87 -88v-366c0 -121 74 -192 176 -192c89 0 172 68 172 195v284c0 48 0 168 -127 167v15h281v-15c-141 1 -139 -119 -139 -167v-284c1 -197 -139 -247 -245 -247zM298 880
c0 -32 26 -58 58 -58c33 0 58 26 58 58c0 33 -25 59 -58 59c-32 0 -58 -26 -58 -59zM261 880c0 53 43 95 95 95s95 -42 95 -95c0 -51 -43 -94 -95 -94s-95 43 -95 94z" />
    <glyph glyph-name="uring" unicode="&#x16f;" horiz-adv-x="543" 
d="M523 29v-14l-131 -23c-26 -4 -26 17 -26 17v86c-21 -55 -95 -104 -160 -104c-75 0 -134 30 -134 152v219c0 63 2 69 -56 75v15l161 19v-325c0 -66 36 -94 94 -94c38 0 76 30 95 71v239c0 61 3 71 -47 75v15l153 19v-383c0 -48 9 -54 51 -59zM208 615c0 -32 26 -58 58 -58
c33 0 58 26 58 58c0 33 -25 59 -58 59c-32 0 -58 -26 -58 -59zM171 615c0 53 43 95 95 95s95 -42 95 -95c0 -51 -43 -94 -95 -94s-95 43 -95 94z" />
    <glyph glyph-name="Uhungarumlaut" unicode="&#x170;" horiz-adv-x="752" 
d="M332 -9c-132 0 -240 89 -240 252v359c0 64 -31 87 -75 87v15h284v-15c-43 0 -87 -13 -87 -88v-366c0 -121 74 -192 176 -192c89 0 172 68 172 195v284c0 48 0 168 -127 167v15h281v-15c-141 1 -139 -119 -139 -167v-284c1 -197 -139 -247 -245 -247zM383 735l170 164
l99 -30l-240 -134h-29zM208 735l170 164l99 -30l-240 -134h-29z" />
    <glyph glyph-name="uhungarumlaut" unicode="&#x171;" horiz-adv-x="543" 
d="M523 29v-14l-131 -23c-26 -4 -26 17 -26 17v86c-21 -55 -95 -104 -160 -104c-75 0 -134 30 -134 152v219c0 63 2 69 -56 75v15l161 19v-325c0 -66 36 -94 94 -94c38 0 76 30 95 71v239c0 61 3 71 -47 75v15l153 19v-383c0 -48 9 -54 51 -59zM265 541l170 164l99 -30
l-240 -134h-29zM90 541l170 164l99 -30l-240 -134h-29z" />
    <glyph glyph-name="Ydieresis" unicode="&#x178;" horiz-adv-x="732" 
d="M401 830c0 29 24 53 52 53c30 0 54 -24 54 -53s-24 -52 -54 -52c-28 0 -52 23 -52 52zM439 704h279v-15c-35 0 -109 -2 -221 -221l-71 -148v-203c0 -75 38 -102 80 -102v-15h-279v15c42 0 80 27 80 102v165c-147 260 -192 329 -192 329c-44 77 -77 78 -106 79v14h288v-14
c-25 0 -91 1 -23 -114l143 -238l71 147c17 35 91 204 -49 204v15zM227 830c0 29 24 53 53 53s52 -24 52 -53s-23 -52 -52 -52s-53 23 -53 52z" />
    <glyph glyph-name="Zacute" unicode="&#x179;" horiz-adv-x="581" 
d="M191 15h36c181 0 276 118 300 218h17l-25 -233h-495l388 689h-48c-159 0 -265 -65 -297 -187h-19l18 202h489zM168 735l173 163l96 -29l-240 -134h-29z" />
    <glyph glyph-name="zacute" unicode="&#x17a;" horiz-adv-x="448" 
d="M409 462l-245 -447c150 0 200 72 214 137h15l-9 -152h-355l259 447c-134 0 -202 -37 -221 -117h-15l5 132h352zM117 541l173 163l96 -29l-240 -134h-29z" />
    <glyph glyph-name="Zdotaccent" unicode="&#x17b;" horiz-adv-x="581" 
d="M191 15h36c181 0 276 118 300 218h17l-25 -233h-495l388 689h-48c-159 0 -265 -65 -297 -187h-19l18 202h489zM315 790c-31 0 -57 25 -57 56s26 56 57 56s56 -25 56 -56s-25 -56 -56 -56z" />
    <glyph glyph-name="zdotaccent" unicode="&#x17c;" horiz-adv-x="448" 
d="M409 462l-245 -447c150 0 200 72 214 137h15l-9 -152h-355l259 447c-134 0 -202 -37 -221 -117h-15l5 132h352zM231 570c-31 0 -57 25 -57 56s26 56 57 56s56 -25 56 -56s-25 -56 -56 -56z" />
    <glyph glyph-name="Zcaron" unicode="&#x17d;" horiz-adv-x="581" 
d="M191 15h36c181 0 276 118 300 218h17l-25 -233h-495l388 689h-48c-159 0 -265 -65 -297 -187h-19l18 202h489zM313 833l118 89h31l-149 -187l-149 187h30z" />
    <glyph glyph-name="zcaron" unicode="&#x17e;" horiz-adv-x="448" 
d="M233 593l118 89h31l-149 -187l-149 187h30zM409 462l-245 -447c150 0 200 72 214 137h15l-9 -152h-355l259 447c-134 0 -202 -37 -221 -117h-15l5 132h352z" />
    <glyph glyph-name="florin" unicode="&#x192;" horiz-adv-x="660" 
d="M618 626c-13 -27 -45 -38 -71 -25c-27 13 -38 45 -25 72c7 13 17 22 31 26c6 2 6 21 -37 21c-65 0 -98 -192 -98 -192l-20 -145h117l-6 -16h-112l-37 -269c-32 -242 -88 -338 -224 -337c-61 0 -93 32 -103 48s-12 42 -3 60c13 27 45 38 72 25c26 -12 37 -45 24 -72
c-7 -13 -19 -22 -31 -26c-7 -2 -8 -20 40 -20c64 0 98 196 98 196l53 395h-76l1 16h75c24 193 96 352 229 352c53 0 90 -32 100 -48c10 -17 12 -43 3 -61z" />
    <glyph glyph-name="circumflex" unicode="&#x2c6;" horiz-adv-x="298" 
d="M149 621l-119 -90h-30l149 188l149 -188h-30z" />
    <glyph glyph-name="caron" unicode="&#x2c7;" horiz-adv-x="300" 
d="M149 631l118 89h31l-149 -187l-149 187h30z" />
    <glyph glyph-name="uni02C9" unicode="&#x2c9;" horiz-adv-x="305" 
d="M330 588h-355v66h355v-66z" />
    <glyph glyph-name="breve" unicode="&#x2d8;" horiz-adv-x="262" 
d="M250 704h13c0 -76 -35 -144 -130 -144c-97 0 -134 68 -134 144h14c0 -37 22 -78 120 -78c94 0 117 41 117 78z" />
    <glyph glyph-name="dotaccent" unicode="&#x2d9;" horiz-adv-x="270" 
d="M137 589c-31 0 -57 25 -57 56s26 56 57 56s56 -25 56 -56s-25 -56 -56 -56z" />
    <glyph glyph-name="ring" unicode="&#x2da;" horiz-adv-x="276" 
d="M82 637c0 -32 26 -58 58 -58c33 0 58 26 58 58c0 33 -25 59 -58 59c-32 0 -58 -26 -58 -59zM45 637c0 53 43 95 95 95s95 -42 95 -95c0 -51 -43 -94 -95 -94s-95 43 -95 94z" />
    <glyph glyph-name="ogonek" unicode="&#x2db;" horiz-adv-x="274" 
d="M162 -127c11 -46 62 -38 62 -38c22 2 36 22 36 42h14c0 -36 -8 -72 -63 -79c-86 -12 -103 45 -103 45c-24 81 43 129 135 160v-14c-59 -30 -91 -79 -81 -116z" />
    <glyph glyph-name="tilde" unicode="&#x2dc;" horiz-adv-x="431" 
d="M260 557l-117 43c-34 12 -123 9 -150 -47l-12 5c66 163 188 121 188 121l117 -43c34 -13 124 -6 150 49l12 -7c-67 -163 -188 -121 -188 -121z" />
    <glyph glyph-name="hungarumlaut" unicode="&#x2dd;" horiz-adv-x="533" 
d="M262 557l170 164l99 -30l-240 -134h-29zM87 557l170 164l99 -30l-240 -134h-29z" />
    <glyph glyph-name="uni03A9" unicode="&#x3a9;" horiz-adv-x="711" 
d="M667 157h15l-29 -157h-258c20 102 121 193 121 445c0 253 -87 275 -161 275s-160 -22 -160 -275c0 -252 101 -343 120 -445h-257l-29 157h15c19 -47 62 -56 100 -56h112c-8 26 -47 48 -81 84c-84 89 -109 176 -109 265c0 157 96 285 289 285c194 0 289 -128 289 -285
c0 -89 -24 -176 -108 -265c-34 -36 -73 -58 -82 -84h112c39 0 82 9 101 56z" />
    <glyph glyph-name="uni03BC" unicode="&#x3bc;" horiz-adv-x="539" 
d="M518 29v-15l-131 -22c-26 -5 -26 17 -26 17v86c-22 -61 -111 -118 -189 -97v-161c0 -49 10 -60 52 -64v-15l-130 -22c-27 -5 -27 17 -27 17v609c0 62 2 69 -56 75v15l161 19v-329c2 -63 36 -90 94 -90c38 0 76 30 95 71v239c0 61 3 71 -47 75v15l153 19v-384
c0 -48 9 -53 51 -58z" />
    <glyph glyph-name="pi" unicode="&#x3c0;" horiz-adv-x="580" 
d="M516 61l14 -7c-7 -33 -34 -61 -88 -61c-85 0 -85 90 -85 90v301h-121l-12 -207c-6 -132 -155 -218 -155 -218l-8 11c62 48 102 142 106 213l12 201h-5c-38 -2 -109 -13 -152 -70l-13 8s48 137 168 140h252c77 0 116 6 121 63h13c0 -86 -20 -141 -117 -141h-7v-276
c0 -60 34 -67 45 -67c25 0 32 20 32 20z" />
    <glyph glyph-name="uni2010" unicode="&#x2010;" horiz-adv-x="447" 
d="M64 294h315v-78h-315v78z" />
    <glyph glyph-name="endash" unicode="&#x2013;" horiz-adv-x="561" 
d="M0 282h561v-60h-561v60z" />
    <glyph glyph-name="emdash" unicode="&#x2014;" horiz-adv-x="1055" 
d="M0 282h1055v-60h-1055v60z" />
    <glyph glyph-name="quoteleft" unicode="&#x2018;" horiz-adv-x="253" 
d="M175 730l9 -11c-62 -46 -66 -109 -50 -111c17 -2 34 -7 48 -21c27 -27 28 -71 1 -99c-28 -28 -73 -28 -100 0c-43 42 -16 122 14 168c13 21 33 50 78 74z" />
    <glyph glyph-name="quoteright" unicode="&#x2019;" horiz-adv-x="255" 
d="M86 452l-9 11c62 46 66 109 50 111c-17 2 -34 7 -48 21c-27 27 -28 71 -1 99c28 28 73 28 100 0c43 -42 16 -122 -14 -168c-13 -21 -33 -50 -78 -74z" />
    <glyph glyph-name="quotesinglbase" unicode="&#x201a;" horiz-adv-x="256" 
d="M85 -128l-9 11c62 46 66 109 50 111c-17 2 -34 7 -48 21c-27 27 -28 71 -1 99c28 28 73 28 100 0c43 -42 16 -122 -14 -168c-13 -21 -33 -50 -78 -74z" />
    <glyph glyph-name="quotedblleft" unicode="&#x201c;" horiz-adv-x="485" 
d="M393 718l9 -11c-62 -46 -66 -109 -50 -111c17 -2 34 -7 48 -21c27 -27 28 -71 1 -99c-28 -28 -73 -28 -100 0c-43 42 -16 122 14 168c13 21 33 50 78 74zM168 718l9 -11c-62 -46 -66 -109 -50 -111c17 -2 34 -7 48 -21c28 -27 29 -71 1 -99c-27 -28 -73 -28 -100 0
c-42 42 -15 122 14 168c13 21 34 50 78 74z" />
    <glyph glyph-name="quotedblright" unicode="&#x201d;" horiz-adv-x="479" 
d="M86 456l-9 11c62 46 66 109 50 111c-17 2 -34 7 -48 21c-27 27 -28 71 -1 99c28 28 73 28 100 0c43 -42 16 -122 -14 -168c-13 -21 -33 -50 -78 -74zM311 456l-9 11c62 46 66 109 50 111c-17 2 -34 7 -48 21c-28 27 -29 71 -1 99c27 28 73 28 100 0
c42 -42 15 -122 -14 -168c-13 -21 -34 -50 -78 -74z" />
    <glyph glyph-name="quotedblbase" unicode="&#x201e;" horiz-adv-x="475" 
d="M84 -128l-9 11c62 46 66 109 50 111c-17 2 -34 7 -48 21c-27 27 -28 71 -1 99c28 28 73 28 100 0c43 -42 16 -122 -14 -168c-13 -21 -33 -50 -78 -74zM309 -128l-9 11c62 46 66 109 50 111c-17 2 -34 7 -48 21c-28 27 -29 71 -1 99c27 28 73 28 100 0
c42 -42 15 -122 -14 -168c-13 -21 -34 -50 -78 -74z" />
    <glyph glyph-name="dagger" unicode="&#x2020;" horiz-adv-x="407" 
d="M203 645c-26 0 -46 21 -46 46c0 24 20 45 46 45c24 0 45 -21 45 -45c0 -25 -21 -46 -45 -46zM115 451c9 -6 23 -20 36 -41l-4 -4c-20 25 -53 32 -54 25c-1 -9 -3 -19 -11 -26c-15 -16 -39 -16 -55 -1c-15 16 -16 40 0 55c23 25 64 8 88 -8zM211 403c0 0 -2 -54 41 -111
c-46 -249 -45 -542 -45 -557h-8c0 15 0 308 -45 557c42 59 40 111 40 111c0 56 -21 92 -21 142c0 0 -2 61 30 61s29 -61 29 -61c0 -50 -21 -83 -21 -142zM378 459c16 -15 16 -39 0 -55c-15 -15 -40 -15 -55 1c-8 7 -11 17 -12 26c0 7 -33 0 -53 -25l-5 4c13 21 28 34 38 41
c23 16 64 33 87 8z" />
    <glyph glyph-name="daggerdbl" unicode="&#x2021;" 
d="M258 352c0 -25 13 -80 55 -107c-42 -29 -55 -81 -55 -105c0 -66 27 -84 27 -142c0 0 2 -72 -35 -72c-39 0 -36 72 -36 72c0 58 26 73 26 142c0 24 -13 80 -56 105c43 30 56 82 56 107c0 65 -26 83 -26 142c0 0 -3 72 35 72s35 -72 35 -72c0 -59 -26 -74 -26 -142z
M378 412c-1 8 -40 0 -64 -29l-5 3c15 26 32 41 44 49c27 20 76 39 104 10c18 -18 18 -47 0 -65c-19 -18 -48 -18 -66 0c-9 9 -13 21 -13 32zM249 614c-30 0 -54 23 -54 53s24 55 54 55s54 -25 54 -55s-24 -53 -54 -53zM250 -120c29 0 53 -25 53 -54c0 -30 -24 -54 -53 -54
c-31 0 -55 24 -55 54c0 29 24 54 55 54zM107 380c-18 -18 -47 -18 -66 0c-18 18 -18 47 0 65c28 29 77 10 104 -10c12 -8 28 -23 44 -49l-6 -3c-23 29 -62 37 -62 29c-1 -11 -5 -23 -14 -32zM391 115c18 19 47 19 66 0c18 -19 18 -48 0 -66c-28 -28 -77 -8 -104 10
c-12 9 -29 24 -44 50l5 4c24 -30 63 -37 64 -30c0 11 4 23 13 32zM121 83c0 -7 39 0 62 30l6 -4c-16 -26 -32 -41 -44 -50c-27 -18 -76 -38 -104 -10c-18 18 -18 47 0 66s48 19 66 0c9 -9 13 -21 14 -32z" />
    <glyph glyph-name="bullet" unicode="&#x2022;" horiz-adv-x="473" 
d="M231 232c-61 0 -110 49 -110 109c0 62 49 110 110 110s111 -48 111 -110c0 -60 -50 -109 -111 -109z" />
    <glyph glyph-name="ellipsis" unicode="&#x2026;" horiz-adv-x="792" 
d="M701 63c0 -39 -32 -71 -72 -71s-72 32 -72 71c0 41 32 73 72 73s72 -32 72 -73zM465 63c0 -39 -32 -71 -72 -71s-72 32 -72 71c0 41 32 73 72 73s72 -32 72 -73zM230 63c0 -39 -32 -71 -72 -71s-72 32 -72 71c0 41 32 73 72 73s72 -32 72 -73z" />
    <glyph glyph-name="perthousand" unicode="&#x2030;" horiz-adv-x="1100" 
d="M93 496c0 -138 17 -161 61 -161c45 0 60 23 60 161s-17 168 -60 168c-45 0 -61 -30 -61 -168zM290 496c0 -92 -27 -176 -136 -176c-110 0 -137 84 -137 176s27 183 137 183c109 0 136 -91 136 -183zM601 40c45 0 60 23 60 161s-17 167 -60 167c-45 0 -61 -29 -61 -167
s17 -161 61 -161zM601 383c109 0 136 -90 136 -182s-27 -176 -136 -176c-110 0 -136 84 -136 176s26 182 136 182zM120 0l456 704h59l-456 -704h-59zM931 40c46 0 61 23 61 161s-18 167 -61 167c-44 0 -60 -29 -60 -167s17 -161 60 -161zM931 383c110 0 136 -90 136 -182
s-26 -176 -136 -176s-136 84 -136 176s26 182 136 182z" />
    <glyph glyph-name="guilsinglleft" unicode="&#x2039;" horiz-adv-x="339" 
d="M281 505v-33l-136 -206l136 -201v-32l-231 233z" />
    <glyph glyph-name="guilsinglright" unicode="&#x203a;" horiz-adv-x="339" 
d="M48 472v33l231 -239l-231 -233v32l135 201z" />
    <glyph glyph-name="fraction" unicode="&#x2044;" horiz-adv-x="343" 
d="M458 734h55l-605 -734h-54z" />
    <glyph glyph-name="Euro" unicode="&#x20ac;" horiz-adv-x="609" 
d="M243 419h223l-11 -16h-213v-51v-49h207l-10 -16h-196c9 -228 61 -281 148 -281c70 0 145 49 145 163h15v-133c-49 -34 -85 -45 -161 -45c-174 0 -250 124 -267 296h-104l11 16h91c-1 16 -1 36 -1 49s0 32 1 51h-102l11 16h93c18 172 93 294 268 294c81 0 114 -10 160 -45
v-133h-15c0 113 -71 163 -145 163c-88 0 -139 -54 -148 -279z" />
    <glyph glyph-name="afii61289" unicode="&#x2113;" horiz-adv-x="350" 
d="M191 336v182c0 260 69 184 75 176c39 -50 61 -228 -40 -325zM331 92l-14 5c-13 -40 -36 -53 -54 -56c-50 -9 -80 40 -75 137l2 111l53 50c94 87 102 291 33 367c-65 71 -191 34 -191 -208v-227l-63 -50v-44l63 48v-31c0 -164 65 -203 142 -203c46 0 98 42 104 101z" />
    <glyph glyph-name="trademark" unicode="&#x2122;" horiz-adv-x="699" 
d="M637 474c0 -31 17 -42 35 -42v-15h-114v15c17 0 30 11 30 42v184l-97 -245h-14l-106 239v-125c0 -24 -3 -95 48 -95v-15h-119v15c56 0 55 72 55 95v145c-11 17 -32 17 -42 17v15h92l99 -216l84 216h81v-15c-17 0 -32 -9 -32 -36v-179zM13 704h258v-82h-15
c0 67 -71 67 -74 67h-15v-219c0 -27 15 -38 32 -38v-15h-114v15c17 0 32 11 32 38v219h-16c-6 0 -73 0 -73 -67h-15v82z" />
    <glyph glyph-name="Omega" unicode="&#x2126;" horiz-adv-x="711" 
d="M667 157h15l-29 -157h-258c20 102 121 193 121 445c0 253 -87 275 -161 275s-160 -22 -160 -275c0 -252 101 -343 120 -445h-257l-29 157h15c19 -47 62 -56 100 -56h112c-8 26 -47 48 -81 84c-84 89 -109 176 -109 265c0 157 96 285 289 285c194 0 289 -128 289 -285
c0 -89 -24 -176 -108 -265c-34 -36 -73 -58 -82 -84h112c39 0 82 9 101 56z" />
    <glyph glyph-name="estimated" unicode="&#x212e;" horiz-adv-x="892" 
d="M176 608v-213h544v208c-70 63 -167 103 -275 103c-105 0 -200 -38 -269 -98zM445 735c228 0 413 -165 413 -368h-682v-240c69 -60 164 -98 269 -98c112 0 213 43 283 111h41c-76 -85 -192 -140 -324 -140c-228 0 -413 164 -413 367s185 368 413 368z" />
    <glyph glyph-name="partialdiff" unicode="&#x2202;" horiz-adv-x="538" 
d="M373 333c-13 48 -61 83 -95 83c-55 0 -109 -62 -122 -208c-16 -165 18 -202 87 -202c68 0 111 109 130 327zM495 333c-15 -197 -93 -342 -252 -342c-136 0 -216 79 -202 234c9 115 68 233 194 233c43 0 123 -24 142 -95c23 287 -32 366 -122 366
c-77 0 -152 -85 -145 -160l-16 -5l-31 96c34 50 108 84 192 84c169 0 260 -159 240 -411z" />
    <glyph glyph-name="Delta" unicode="&#x2206;" horiz-adv-x="714" 
d="M79 40h452l-226 527zM375 738l294 -706l-15 -32h-616l-6 26l1 2l287 692z" />
    <glyph glyph-name="product" unicode="&#x220f;" horiz-adv-x="781" 
d="M654 590v-543c0 -77 36 -117 84 -117v-15h-304v15c48 0 84 40 84 117v540c0 70 -35 101 -84 101h-95c-48 0 -81 -31 -81 -101v-540c0 -77 34 -117 81 -117v-15h-301v15c48 0 84 40 84 117v543c0 69 -34 99 -84 99v15h700v-15c-49 0 -84 -30 -84 -99z" />
    <glyph glyph-name="summation" unicode="&#x2211;" horiz-adv-x="668" 
d="M192 689l207 -361l-244 -411h98c289 0 346 151 371 238h16l-27 -253h-537l196 338l-251 464h580l21 -218h-17c-36 125 -179 203 -326 203h-87z" />
    <glyph glyph-name="minus" unicode="&#x2212;" horiz-adv-x="626" 
d="M581 216h-533v78h533v-78z" />
    <glyph glyph-name="uni2215" unicode="&#x2215;" horiz-adv-x="345" 
d="M458 734h57l-605 -734h-56z" />
    <glyph glyph-name="uni2219" unicode="&#x2219;" horiz-adv-x="266" 
d="M134 243c-32 0 -56 25 -56 55c0 32 24 56 56 56c31 0 56 -24 56 -56c0 -30 -25 -55 -56 -55z" />
    <glyph glyph-name="radical" unicode="&#x221a;" horiz-adv-x="565" 
d="M355 36l143 829l44 -12l-180 -1031l-18 -7l-195 456c-22 52 -61 82 -99 67l-5 13l148 63z" />
    <glyph glyph-name="infinity" unicode="&#x221e;" horiz-adv-x="783" 
d="M673 408c63 -64 63 -169 0 -233c-31 -31 -72 -49 -116 -49s-84 17 -116 49c-1 1 -57 60 -57 60s-57 -59 -58 -60c-31 -31 -72 -49 -116 -49s-86 18 -117 49c-62 63 -59 169 0 234c31 31 73 48 117 48s85 -17 116 -49c1 -1 58 -60 58 -60s56 59 57 60c32 32 72 49 116 49
s85 -17 116 -49zM150 353c-16 -16 -25 -38 -25 -62c1 -23 9 -45 25 -61s38 -26 60 -26s43 10 60 25c2 2 59 63 59 63s-59 61 -60 63c-15 15 -36 23 -59 23s-44 -8 -60 -25zM617 230c16 16 25 38 25 61c0 24 -9 46 -25 62c-16 17 -37 25 -60 25s-45 -8 -60 -25
c-1 -1 -58 -62 -58 -62s57 -59 58 -61c16 -16 37 -26 60 -26c22 0 43 10 60 26z" />
    <glyph glyph-name="integral" unicode="&#x222b;" horiz-adv-x="383" 
d="M355 737c-9 -25 -36 -37 -61 -27s-37 37 -28 61c5 13 16 22 27 25c4 1 -3 15 -29 15c-8 0 -66 0 -48 -201l35 -441c21 -251 -22 -379 -135 -379c-45 0 -74 21 -84 35s-14 36 -8 53c9 25 37 37 61 27c25 -10 37 -37 28 -62c-5 -11 -14 -20 -25 -24c-6 -2 2 -15 29 -15
c5 0 67 -1 48 201l-35 440c-21 252 23 380 134 380c45 0 74 -22 85 -35c10 -13 13 -37 6 -53z" />
    <glyph glyph-name="approxequal" unicode="&#x2248;" horiz-adv-x="518" 
d="M306 311l-117 43c-34 12 -123 10 -150 -47l-12 5c66 163 188 122 188 122l117 -44c34 -12 124 -5 150 49l12 -6c-67 -164 -188 -122 -188 -122zM306 131l-117 43c-34 12 -123 9 -150 -47l-12 5c66 163 188 121 188 121l117 -43c34 -13 124 -6 150 49l12 -7
c-67 -163 -188 -121 -188 -121z" />
    <glyph glyph-name="notequal" unicode="&#x2260;" horiz-adv-x="527" 
d="M480 346h-148l-59 -129h207v-63h-238l-58 -126l-58 26l46 100h-126v63h156l59 129h-215v64h246l63 136l57 -27l-50 -109h118v-64z" />
    <glyph glyph-name="lessequal" unicode="&#x2264;" horiz-adv-x="532" 
d="M191 344l288 -150v-89l-423 217v46l423 217v-90zM47 58h432v-73h-432v73z" />
    <glyph glyph-name="greaterequal" unicode="&#x2265;" horiz-adv-x="532" 
d="M55 194l288 150l-288 151v90l423 -217v-46l-423 -217v89zM55 58h432v-73h-432v73z" />
    <glyph glyph-name="lozenge" unicode="&#x25ca;" horiz-adv-x="559" 
d="M428 327l-150 291l-151 -291l151 -291zM301 733l208 -406l-208 -406h-45l-208 406l208 406h45z" />
    <glyph glyph-name="zero.taboldstyle" unicode="&#xf643;" horiz-adv-x="564" 
d="M394 229c0 190 -32 227 -106 227c-76 0 -107 -37 -107 -227c0 -188 31 -223 107 -223c74 0 106 35 106 223zM520 229c0 -162 -85 -238 -232 -238s-232 78 -232 238c0 156 85 242 232 242s232 -79 232 -242z" />
    <glyph glyph-name="one.taboldstyle" unicode="&#xf644;" horiz-adv-x="491" 
d="M204 93v271c0 51 -23 57 -80 43l-1 14l180 50h7v-378c0 -77 44 -78 79 -78v-15h-273v15c40 0 88 3 88 78z" />
    <glyph glyph-name="two.taboldstyle" unicode="&#xf645;" 
d="M420 153h15l-43 -153h-320l103 110c117 112 139 185 123 249c-17 71 -87 103 -142 77c-34 -16 -33 -30 -28 -29c12 1 26 -3 36 -12c21 -19 21 -50 3 -70c-19 -20 -51 -21 -71 -2c-14 14 -18 34 -13 51c3 13 16 41 69 75c44 28 238 51 257 -81
c20 -145 -151 -194 -225 -272l153 3c34 0 62 14 83 54z" />
    <glyph glyph-name="three.taboldstyle" unicode="&#xf646;" horiz-adv-x="539" 
d="M91 -211c-15 15 -25 43 -17 67c10 35 47 55 81 45c36 -11 54 -47 44 -83c-6 -17 -18 -28 -34 -35c-8 -3 19 -33 99 -33c102 0 137 88 128 187c-4 47 -40 146 -191 161v16c160 39 164 190 92 250c-54 46 -166 23 -194 -62l-16 3c18 165 171 166 181 166
c151 0 260 -191 81 -326c97 -30 149 -103 152 -169c9 -177 -145 -241 -232 -241c-88 0 -139 19 -174 54z" />
    <glyph glyph-name="four.taboldstyle" unicode="&#xf647;" horiz-adv-x="577" 
d="M299 13v307l-173 -260c-31 -47 -10 -47 13 -47h160zM521 -48h-100v-84c0 -116 38 -118 80 -118v-15h-282v15c42 0 80 4 80 113v89h-250v16l332 501l40 -7v-449h100v-61z" />
    <glyph glyph-name="five.taboldstyle" unicode="&#xf648;" horiz-adv-x="553" 
d="M503 -23c8 -166 -121 -242 -254 -242c-93 0 -142 37 -160 52c-16 16 -25 45 -19 69c10 35 48 56 84 46c35 -10 56 -47 45 -83c-5 -18 -16 -30 -32 -38c-12 -6 10 -31 82 -31c131 0 191 98 163 193c-19 62 -104 171 -340 130l67 389h346l-35 -112h-313l-29 -171
c281 53 389 -85 395 -202z" />
    <glyph glyph-name="six.taboldstyle" unicode="&#xf649;" horiz-adv-x="571" 
d="M404 216c0 140 -48 217 -105 217c-55 0 -122 -51 -122 -116c0 -200 31 -311 113 -311c75 0 114 55 114 210zM527 234c0 -155 -98 -243 -237 -243c-169 0 -245 124 -245 323c0 233 129 399 287 399c91 0 123 -47 132 -63c10 -17 9 -44 -4 -63c-19 -28 -56 -34 -84 -15
c-27 19 -34 57 -14 84c9 13 23 22 38 23c6 1 -11 17 -61 19c-87 2 -161 -62 -162 -339c29 81 101 112 163 112c142 0 187 -130 187 -237z" />
    <glyph glyph-name="seven.taboldstyle" unicode="&#xf64a;" horiz-adv-x="551" 
d="M78 462h451l-64 -108c-125 -224 -144 -414 -144 -610h-123c5 212 52 351 252 610h-289c-41 0 -70 -17 -90 -58h-15z" />
    <glyph glyph-name="eight.taboldstyle" unicode="&#xf64b;" horiz-adv-x="559" 
d="M402 553c-1 116 -65 145 -123 145c-56 0 -105 -39 -105 -112c0 -75 49 -123 160 -167c37 15 69 63 68 134zM292 -9c-148 0 -248 44 -248 165c0 86 80 159 163 183c-97 58 -133 121 -133 191c0 123 94 183 205 183c120 0 200 -56 200 -151c0 -59 -49 -133 -129 -152
c96 -48 177 -125 177 -214c0 -149 -102 -205 -235 -205zM262 307c-17 9 -24 13 -39 22c-30 -14 -85 -62 -85 -169c0 -98 62 -154 154 -154c60 0 127 36 126 132c-1 79 -73 126 -156 169z" />
    <glyph glyph-name="nine.taboldstyle" unicode="&#xf64c;" horiz-adv-x="553" 
d="M161 243c0 -140 48 -214 105 -214c55 0 122 44 122 109c0 187 -31 318 -113 318c-75 0 -114 -58 -114 -213zM38 224c0 170 98 247 237 247c169 0 245 -132 245 -331c0 -250 -94 -405 -284 -405c-105 0 -134 52 -144 69c-11 19 -10 48 4 69c21 30 62 37 92 16
c29 -20 36 -62 15 -91c-10 -14 -26 -24 -42 -25c-8 -1 17 -22 67 -23c127 -3 159 57 160 345c-28 -77 -101 -104 -163 -104c-142 0 -187 127 -187 233z" />
    <glyph glyph-name="dollar.taboldstyle" unicode="&#xf653;" horiz-adv-x="568" 
d="M288 6c163 3 155 168 50 243l-50 32v-275zM265 452v246c-107 -1 -167 -136 -28 -227zM397 365c133 -87 172 -197 108 -292c-31 -37 -77 -81 -217 -82v-122h-23v122c-152 7 -219 59 -219 59v192h8c15 -86 66 -215 211 -236v289l-86 56c-119 76 -191 171 -111 285
c0 0 49 76 197 77v122h23v-122c144 -4 220 -48 220 -48v-168h-8c-14 71 -67 191 -212 200v-260z" />
    <glyph glyph-name="cent.taboldstyle" unicode="&#xf654;" horiz-adv-x="524" 
d="M185 246c0 -114 58 -166 123 -182v391c-45 -9 -123 -54 -123 -209zM474 128l12 -7c-12 -46 -59 -119 -160 -130v-109h-18v109c-149 1 -233 110 -233 240c0 114 82 231 233 240v122h18v-122c84 0 121 -37 134 -53c12 -14 19 -38 10 -58c-11 -28 -44 -44 -73 -32
c-29 11 -43 44 -31 72c5 15 17 25 29 30c9 3 -16 26 -69 26v-395c61 -5 128 31 148 67z" />
    <glyph glyph-name="dollar.oldstyle" unicode="&#xf724;" horiz-adv-x="568" 
d="M288 6c163 3 155 168 50 243l-50 32v-275zM265 452v246c-107 -1 -167 -136 -28 -227zM397 365c133 -87 172 -197 108 -292c-31 -37 -77 -81 -217 -82v-122h-23v122c-152 7 -219 59 -219 59v192h8c15 -86 66 -215 211 -236v289l-86 56c-119 76 -191 171 -111 285
c0 0 49 76 197 77v122h23v-122c144 -4 220 -48 220 -48v-168h-8c-14 71 -67 191 -212 200v-260z" />
    <glyph glyph-name="zero.oldstyle" unicode="&#xf730;" horiz-adv-x="564" 
d="M394 229c0 190 -32 227 -106 227c-76 0 -107 -37 -107 -227c0 -188 31 -223 107 -223c74 0 106 35 106 223zM520 229c0 -162 -85 -238 -232 -238s-232 78 -232 238c0 156 85 242 232 242s232 -79 232 -242z" />
    <glyph glyph-name="one.oldstyle" unicode="&#xf731;" horiz-adv-x="491" 
d="M204 93v271c0 51 -23 57 -80 43l-1 14l180 50h7v-378c0 -77 44 -78 79 -78v-15h-273v15c40 0 88 3 88 78z" />
    <glyph glyph-name="two.oldstyle" unicode="&#xf732;" 
d="M420 153h15l-43 -153h-320l103 110c117 112 139 185 123 249c-17 71 -87 103 -142 77c-34 -16 -33 -30 -28 -29c12 1 26 -3 36 -12c21 -19 21 -50 3 -70c-19 -20 -51 -21 -71 -2c-14 14 -18 34 -13 51c3 13 16 41 69 75c44 28 238 51 257 -81
c20 -145 -151 -194 -225 -272l153 3c34 0 62 14 83 54z" />
    <glyph glyph-name="three.oldstyle" unicode="&#xf733;" horiz-adv-x="539" 
d="M91 -211c-15 15 -25 43 -17 67c10 35 47 55 81 45c36 -11 54 -47 44 -83c-6 -17 -18 -28 -34 -35c-8 -3 19 -33 99 -33c102 0 137 88 128 187c-4 47 -40 146 -191 161v16c160 39 164 190 92 250c-54 46 -166 23 -194 -62l-16 3c18 165 171 166 181 166
c151 0 260 -191 81 -326c97 -30 149 -103 152 -169c9 -177 -145 -241 -232 -241c-88 0 -139 19 -174 54z" />
    <glyph glyph-name="four.oldstyle" unicode="&#xf734;" horiz-adv-x="577" 
d="M299 13v307l-173 -260c-31 -47 -10 -47 13 -47h160zM521 -48h-100v-84c0 -116 38 -118 80 -118v-15h-282v15c42 0 80 4 80 113v89h-250v16l332 501l40 -7v-449h100v-61z" />
    <glyph glyph-name="five.oldstyle" unicode="&#xf735;" horiz-adv-x="553" 
d="M503 -23c8 -166 -121 -242 -254 -242c-93 0 -142 37 -160 52c-16 16 -25 45 -19 69c10 35 48 56 84 46c35 -10 56 -47 45 -83c-5 -18 -16 -30 -32 -38c-12 -6 10 -31 82 -31c131 0 191 98 163 193c-19 62 -104 171 -340 130l67 389h346l-35 -112h-313l-29 -171
c281 53 389 -85 395 -202z" />
    <glyph glyph-name="six.oldstyle" unicode="&#xf736;" horiz-adv-x="571" 
d="M404 216c0 140 -48 217 -105 217c-55 0 -122 -51 -122 -116c0 -200 31 -311 113 -311c75 0 114 55 114 210zM527 234c0 -155 -98 -243 -237 -243c-169 0 -245 124 -245 323c0 233 129 399 287 399c91 0 123 -47 132 -63c10 -17 9 -44 -4 -63c-19 -28 -56 -34 -84 -15
c-27 19 -34 57 -14 84c9 13 23 22 38 23c6 1 -11 17 -61 19c-87 2 -161 -62 -162 -339c29 81 101 112 163 112c142 0 187 -130 187 -237z" />
    <glyph glyph-name="seven.oldstyle" unicode="&#xf737;" horiz-adv-x="551" 
d="M78 462h451l-64 -108c-125 -224 -144 -414 -144 -610h-123c5 212 52 351 252 610h-289c-41 0 -70 -17 -90 -58h-15z" />
    <glyph glyph-name="eight.oldstyle" unicode="&#xf738;" horiz-adv-x="559" 
d="M402 553c-1 116 -65 145 -123 145c-56 0 -105 -39 -105 -112c0 -75 49 -123 160 -167c37 15 69 63 68 134zM292 -9c-148 0 -248 44 -248 165c0 86 80 159 163 183c-97 58 -133 121 -133 191c0 123 94 183 205 183c120 0 200 -56 200 -151c0 -59 -49 -133 -129 -152
c96 -48 177 -125 177 -214c0 -149 -102 -205 -235 -205zM262 307c-17 9 -24 13 -39 22c-30 -14 -85 -62 -85 -169c0 -98 62 -154 154 -154c60 0 127 36 126 132c-1 79 -73 126 -156 169z" />
    <glyph glyph-name="nine.oldstyle" unicode="&#xf739;" horiz-adv-x="553" 
d="M161 243c0 -140 48 -214 105 -214c55 0 122 44 122 109c0 187 -31 318 -113 318c-75 0 -114 -58 -114 -213zM38 224c0 170 98 247 237 247c169 0 245 -132 245 -331c0 -250 -94 -405 -284 -405c-105 0 -134 52 -144 69c-11 19 -10 48 4 69c21 30 62 37 92 16
c29 -20 36 -62 15 -91c-10 -14 -26 -24 -42 -25c-8 -1 17 -22 67 -23c127 -3 159 57 160 345c-28 -77 -101 -104 -163 -104c-142 0 -187 127 -187 233z" />
    <glyph glyph-name="cent.oldstyle" unicode="&#xf7a2;" horiz-adv-x="524" 
d="M185 246c0 -114 58 -166 123 -182v391c-45 -9 -123 -54 -123 -209zM474 128l12 -7c-12 -46 -59 -119 -160 -130v-109h-18v109c-149 1 -233 110 -233 240c0 114 82 231 233 240v122h18v-122c84 0 121 -37 134 -53c12 -14 19 -38 10 -58c-11 -28 -44 -44 -73 -32
c-29 11 -43 44 -31 72c5 15 17 25 29 30c9 3 -16 26 -69 26v-395c61 -5 128 31 148 67z" />
    <glyph glyph-name="fi" unicode="&#xfb01;" horiz-adv-x="558" 
d="M520 8v-8h-187v8c38 11 40 42 40 93v272c0 35 -12 74 -50 74h-134v-348c0 -55 10 -83 45 -91v-8h-190v8c38 10 40 40 40 91v348h-64l-2 15h66v17c0 199 86 266 245 266c68 0 123 -33 137 -73c7 -22 10 -51 -2 -71c-17 -30 -56 -39 -86 -21c-29 18 -39 56 -21 85
c9 15 23 25 39 27c22 4 -7 38 -67 38c-34 0 -140 -5 -140 -231v-37h134h156v-361c0 -55 5 -84 41 -93z" />
    <glyph glyph-name="fl" unicode="&#xfb02;" horiz-adv-x="542" 
d="M528 15v-15h-186v15c38 11 39 35 39 86v538c0 30 -14 57 -52 67c-43 12 -149 29 -149 -214v-30h107l-3 -15h-104v-348c0 -55 9 -76 45 -84v-15h-191v15c38 10 40 33 40 84v348h-64l-2 15h66v60c0 153 75 223 172 223c39 0 74 -9 106 -29l135 30v-645c0 -55 5 -77 41 -86z
" />
    <glyph glyph-name="NULL" horiz-adv-x="0" 
 />
    <glyph glyph-name="CR" horiz-adv-x="278" 
 />
    <glyph glyph-name="two.superior" horiz-adv-x="266" 
d="M206 454h13l-20 -75h-168l103 152c79 125 -64 168 -90 85l-14 3c7 87 89 85 89 85c46 0 79 -34 79 -75c0 -30 -16 -57 -51 -104c-23 -30 -66 -96 -66 -96h83c15 0 32 8 42 25z" />
    <glyph glyph-name="one.superior" horiz-adv-x="221" 
d="M139 433c0 -35 22 -38 38 -38v-15h-132v15c20 0 43 4 43 38v186c0 34 -31 16 -38 10l-11 15l85 61h15v-272z" />
    <glyph glyph-name="a.superior" horiz-adv-x="300" 
d="M155 579c-55 -13 -78 -32 -78 -61c0 -8 5 -36 39 -36c22 0 36 21 39 35v62zM248 493l11 -4c-3 -17 -21 -36 -54 -36c0 0 -45 0 -49 39c-7 -21 -38 -39 -75 -39c0 0 -60 0 -60 53c0 56 43 65 134 88v30c0 54 -30 76 -69 59c-17 -7 -19 -15 -16 -15c8 0 14 -4 18 -10
c8 -12 4 -28 -7 -37c-12 -8 -28 -6 -37 6c-6 8 -6 20 -2 28c4 10 14 26 39 39c24 12 51 10 51 10c63 0 80 -43 80 -104v-84s0 -36 24 -35c0 0 10 0 12 12z" />
    <glyph glyph-name="three.superior" horiz-adv-x="271" 
d="M231 480c3 -81 -67 -107 -108 -107c-35 0 -61 12 -78 26c-8 7 -11 20 -8 31c4 16 21 25 37 21c16 -5 25 -22 21 -38c-3 -8 -7 -14 -14 -17c-5 -1 6 -9 42 -9c42 0 64 35 58 77c-3 21 -17 63 -86 70v15c73 17 76 79 42 106c-26 21 -69 12 -82 -27l-15 2c7 74 82 74 84 74
c69 0 119 -86 39 -147c45 -13 66 -47 68 -77z" />
    <glyph glyph-name="o.superior" horiz-adv-x="320" 
d="M143 469c31 0 61 5 61 108c0 106 -33 113 -61 113c-29 0 -61 -5 -61 -113c0 -104 33 -108 61 -108zM143 705c80 0 115 -45 115 -128c0 -85 -35 -123 -115 -123c-79 0 -115 42 -115 123c0 87 36 128 115 128z" />
    <glyph glyph-name="uni0218" unicode="&#x218;" horiz-adv-x="586" 
d="M256 -292l-9 11c62 46 66 109 50 111c-17 2 -34 7 -48 21c-27 27 -28 71 -1 99c28 28 73 28 100 0c43 -42 16 -122 -14 -168c-13 -21 -33 -50 -78 -74zM505 73c0 0 -45 -82 -203 -82c-178 0 -256 59 -256 59v192h15c16 -91 67 -236 241 -236c129 0 156 157 36 243
l-159 102c-119 76 -191 171 -111 285c0 0 49 77 198 77c158 0 242 -48 242 -48v-168h-15c-14 76 -64 201 -227 201c-108 0 -169 -136 -29 -227l160 -105c133 -88 172 -197 108 -293z" />
    <glyph glyph-name="uni0219" unicode="&#x219;" horiz-adv-x="435" 
d="M180 -292l-9 11c62 46 66 109 50 111c-17 2 -34 7 -48 21c-27 27 -28 71 -1 99c28 28 73 28 100 0c43 -42 16 -122 -14 -168c-13 -21 -33 -50 -78 -74zM358 43c0 0 -36 -52 -133 -52c-121 0 -178 43 -178 43v131h15c11 -53 39 -159 163 -159c88 0 88 98 12 148l-101 61
c-97 62 -121 132 -73 202c0 0 34 54 135 54c115 0 164 -31 164 -31v-117h-15c-10 47 -40 133 -149 133c-80 0 -98 -85 -11 -140l101 -63c90 -56 119 -140 70 -210z" />
    <glyph glyph-name="uni021A" unicode="&#x21a;" horiz-adv-x="676" 
d="M288 -292l-9 11c62 46 66 109 50 111c-17 2 -34 7 -48 21c-27 27 -28 71 -1 99c28 28 73 28 100 0c43 -42 16 -122 -14 -168c-13 -21 -33 -50 -78 -74zM19 704h635v-189h-15c-6 171 -196 174 -203 174h-39v-580c0 -67 37 -94 79 -94v-15h-280v15c42 0 79 27 79 94v580
h-39c-15 0 -196 -3 -202 -174h-15v189z" />
    <glyph glyph-name="uni021B" unicode="&#x21b;" horiz-adv-x="335" 
d="M140 -292l-9 11c62 46 66 109 50 111c-17 2 -34 7 -48 21c-27 27 -28 71 -1 99c28 28 73 28 100 0c43 -42 16 -122 -14 -168c-13 -21 -33 -50 -78 -74zM311 90l13 -8c-17 -45 -70 -91 -133 -91c-75 0 -121 32 -121 153v303h-50l-3 15h53v138l106 17v-155h119l-4 -15h-115
v-300c0 -68 26 -96 75 -96c29 0 52 21 60 39z" />
    <glyph glyph-name="Amacron" unicode="&#x100;" horiz-adv-x="698" 
d="M507 790h-343v18c114.333 0.69043 228.667 0.112305 343 0v-18zM172 220h239l-124 312zM683 15v-15h-257v15c66 0 35 82 23 110l-32 80h-248c-14 -40 -67 -196 82 -190v-15h-235v15c32 1 57 0 149 233l171 456h13c184 -441 251 -612 251 -612c33 -80 56 -75 83 -77z" />
    <glyph glyph-name="amacron" unicode="&#x101;" 
d="M417 570h-343v18c114.333 0.69043 228.667 0.112305 343 0v-18zM298 241c-107 -24 -148 -69 -148 -125c0 -14 9 -72 72 -72c43 0 67 31 76 55v142zM481 66l15 -6c-7 -31 -47 -69 -105 -69c0 0 -83 -1 -92 83c-14 -46 -73 -83 -143 -83c0 0 -115 0 -115 102
c0 105 84 121 257 165v60c0 103 -54 158 -129 122c-35 -18 -40 -36 -34 -37c14 -2 25 -8 34 -20c17 -23 11 -55 -12 -72c-23 -16 -56 -11 -72 12c-12 17 -13 39 -4 55s24 44 78 73c44 23 95 20 95 20c120 0 152 -82 152 -200v-160s0 -66 47 -66c0 0 22 0 28 21z" />
    <glyph glyph-name="emacron" unicode="&#x113;" horiz-adv-x="507" 
d="M433 570h-343v18c114.333 0.69043 228.667 0.112305 343 0v-18zM362 255h-214c0 111 52 201 110 201c51 0 104 -65 104 -201zM436 127c-22 -48 -97 -76 -155 -67c-72 11 -127 64 -133 180h318c0 157 -73 231 -204 231s-226 -99 -226 -243c0 -125 90 -237 217 -237
c126 0 184 80 197 129z" />
    <glyph glyph-name="Emacron" unicode="&#x112;" horiz-adv-x="625" 
d="M467 790h-343v18c114.333 0.690694 228.667 0.112712 343 0v-18zM547 213h15v-213h-533v15c42 0 56 44 56 112v455c0 62 -12 107 -56 107v15h520v-185h-15c-17 169 -239 170 -280 170h-45v-326h50c14 0 143 0 151 102h15v-220h-15c-8 103 -138 103 -151 103h-50v-333h41
c44 0 265 -2 297 198z" />
    <glyph glyph-name="imacron" unicode="&#x12b;" horiz-adv-x="264" 
d="M287 570h-303v18c114.333 0.69043 188.667 0.112305 303 0v-18zM226 15c-36 10 -41 37 -41 92v364l-156 -34v-15c41 -17 50 -31 50 -65v-250c0 -51 -2 -80 -40 -92v-15h187v15z" />
    <glyph glyph-name="omacron" unicode="&#x14d;" horiz-adv-x="548" 
d="M447 570h-343v18c114.333 0.69043 228.667 0.112305 343 0v-18zM384 231c0 -181 -34 -225 -109 -225c-74 0 -109 44 -109 225s35 225 109 225c75 0 109 -44 109 -225zM510 231c0 132 -82 240 -235 240c-152 0 -234 -108 -234 -240c0 -131 82 -240 234 -240
c153 0 235 109 235 240z" />
    <glyph glyph-name="umacron" unicode="&#x16b;" horiz-adv-x="543" 
d="M437 570h-343v18c114.333 0.69043 228.667 0.112305 343 0v-18zM523 29c-42 5 -51 11 -51 59v383l-153 -19v-15c50 -4 47 -14 47 -75v-239c-19 -41 -57 -71 -95 -71c-58 0 -94 28 -94 94v325l-161 -19v-15c58 -6 56 -12 56 -75v-219c0 -122 59 -152 134 -152
c65 0 139 49 160 104v-86s0 -21 26 -17l131 23v14z" />
    <glyph glyph-name="Imacron" unicode="&#x12a;" horiz-adv-x="361" 
d="M323 790h-279v18c114.333 0.69043 164.667 0.112305 279 0v-18zM44 689v15h279v-15c-43 0 -78 -22 -78 -84v-490c0 -69 36 -100 78 -100v-15h-279v15c42 0 78 31 78 100v490c0 62 -34 84 -78 84z" />
    <glyph glyph-name="Omacron" unicode="&#x14c;" horiz-adv-x="755" 
d="M555 790h-343v18c114.333 0.69043 228.667 0.112305 343 0v-18zM566 347c0 -275 -72 -341 -190 -341c-119 0 -192 66 -192 341c0 274 73 351 192 351c118 0 190 -77 190 -351zM711 347c0 198 -115 366 -335 366s-335 -168 -335 -366c0 -199 115 -356 335 -356
s335 157 335 356z" />
    <glyph glyph-name="Umacron" unicode="&#x16a;" horiz-adv-x="736" 
d="M532 790h-343v18c114.333 0.69043 228.667 0.112305 343 0v-18zM332 -9c106 0 246 50 245 247v284c0 48 -2 168 139 167v15h-281v-15c127 1 127 -119 127 -167v-284c0 -127 -83 -195 -172 -195c-102 0 -176 71 -176 192v366c0 75 44 88 87 88v15h-284v-15
c44 0 75 -23 75 -87v-359c0 -163 108 -252 240 -252z" />
    </font>
</defs>
</svg>
